<?xml version="1.0" standalone="no"?>
<!DOCTYPE svg PUBLIC "-//W3C//DTD SVG 20010904//EN"
 "http://www.w3.org/TR/2001/REC-SVG-20010904/DTD/svg10.dtd">
<svg version="1.0" xmlns="http://www.w3.org/2000/svg"
 width="1728.000000pt" height="854.000000pt" viewBox="0 0 1728.000000 854.000000"
 preserveAspectRatio="xMidYMid meet">

<g transform="translate(0.000000,854.000000) scale(0.100000,-0.100000)"
fill="#000000" stroke="none">
<path d="M6093 8313 c-13 -2 -23 -9 -23 -14 0 -6 -5 -7 -10 -4 -12 7 -40 -12
-40 -26 0 -5 1130 -9 2595 -9 1562 0 2595 4 2595 9 0 5 -19 19 -43 30 l-43 21
-2505 -1 c-1377 -1 -2514 -4 -2526 -6z"/>
<path d="M7927 7674 c-16 -16 -7 -44 14 -44 15 0 20 5 17 22 -3 22 -19 33 -31
22z"/>
<path d="M8010 7545 c0 -108 1 -115 20 -115 19 0 20 7 20 115 0 108 -1 115
-20 115 -19 0 -20 -7 -20 -115z"/>
<path d="M8230 7624 c0 -31 -3 -35 -17 -28 -35 16 -85 8 -105 -15 -27 -34 -24
-96 7 -126 26 -27 72 -33 94 -12 11 10 14 10 18 0 3 -7 13 -13 24 -13 18 0 19
8 19 115 0 108 -1 115 -20 115 -16 0 -20 -7 -20 -36z m-15 -78 c18 -27 7 -69
-21 -80 -27 -10 -64 20 -64 52 0 54 56 72 85 28z"/>
<path d="M6480 7635 c0 -10 10 -15 30 -15 l30 0 0 -95 c0 -88 1 -95 20 -95 19
0 20 7 20 95 l0 95 30 0 c20 0 30 5 30 15 0 12 -16 15 -80 15 -64 0 -80 -3
-80 -15z"/>
<path d="M7500 7540 l0 -110 55 0 c30 0 65 5 79 11 35 16 42 56 16 84 -18 20
-19 23 -5 35 20 17 19 53 -3 73 -13 12 -37 17 -80 17 l-62 0 0 -110z m115 50
c0 -22 -5 -25 -37 -28 -36 -3 -38 -2 -38 28 0 30 2 31 38 28 32 -3 37 -6 37
-28z m9 -83 c9 -15 7 -21 -9 -33 -11 -8 -31 -14 -45 -12 -20 2 -26 9 -28 36
-3 33 -3 33 34 30 22 -2 41 -10 48 -21z"/>
<path d="M6701 7584 c-88 -74 22 -207 110 -135 32 26 17 38 -26 22 -38 -13
-75 -2 -75 24 0 12 15 15 65 15 59 0 65 2 65 21 0 29 -53 79 -83 79 -14 0 -39
-12 -56 -26z m87 -26 c21 -21 13 -28 -33 -28 -48 0 -48 0 -39 24 7 19 55 21
72 4z"/>
<path d="M6907 7599 c-27 -16 -50 -68 -42 -98 14 -58 68 -86 116 -61 13 7 19
7 19 0 0 -5 9 -10 20 -10 18 0 20 7 20 85 0 78 -2 85 -20 85 -11 0 -20 -5 -20
-11 0 -5 -10 -3 -22 5 -26 18 -46 20 -71 5z m81 -41 c19 -19 14 -65 -9 -82
-45 -31 -95 27 -62 73 16 23 52 28 71 9z"/>
<path d="M7160 7601 c-8 -6 -27 -7 -42 -4 l-28 6 0 -87 c0 -79 2 -86 20 -86
17 0 20 7 20 51 0 61 13 89 43 89 36 0 47 -19 47 -82 0 -51 2 -58 20 -58 17 0
19 8 22 68 3 66 4 67 32 70 37 5 46 -10 46 -80 0 -51 2 -58 20 -58 18 0 20 7
20 65 0 57 -3 69 -25 90 -28 29 -51 31 -83 9 -20 -14 -24 -14 -44 0 -25 18
-46 20 -68 7z"/>
<path d="M8360 7603 c-66 -24 -78 -117 -21 -160 33 -26 121 -5 121 29 0 10
-18 8 -66 -7 -23 -7 -59 19 -49 36 4 5 33 9 66 9 51 0 59 2 59 19 0 55 -57 93
-110 74z m68 -55 c3 -15 -4 -18 -36 -18 -45 0 -56 8 -40 27 16 20 72 13 76 -9z"/>
<path d="M8572 7594 c-12 -8 -22 -11 -22 -5 0 6 -9 11 -20 11 -18 0 -20 -7
-20 -85 0 -78 2 -85 20 -85 17 0 20 7 20 49 0 62 7 81 30 81 20 0 32 21 21 38
-5 9 -13 7 -29 -4z"/>
<path d="M7710 7535 c0 -52 4 -69 20 -85 22 -22 51 -26 81 -10 13 7 19 7 19 0
0 -5 9 -10 20 -10 18 0 20 7 20 85 0 78 -2 85 -20 85 -18 0 -20 -7 -20 -60 0
-49 -3 -61 -20 -70 -14 -8 -26 -8 -40 0 -17 9 -20 21 -20 70 0 53 -2 60 -20
60 -18 0 -20 -7 -20 -65z"/>
<path d="M7920 7515 c0 -78 2 -85 20 -85 18 0 20 7 20 85 0 78 -2 85 -20 85
-18 0 -20 -7 -20 -85z"/>
<path d="M7773 6965 c0 -44 2 -61 4 -37 2 23 2 59 0 80 -2 20 -4 1 -4 -43z"/>
<path d="M6501 7016 c-18 -21 -7 -44 26 -58 15 -7 31 -17 35 -23 5 -6 8 -5 8
3 0 7 -16 20 -35 28 -37 15 -46 40 -19 51 9 3 26 1 36 -6 16 -10 19 -10 16 1
-7 19 -53 22 -67 4z"/>
<path d="M8080 7015 c-8 -77 6 -125 35 -125 6 1 2 5 -7 11 -12 7 -18 22 -18
49 0 28 5 40 18 43 15 4 15 5 0 6 -9 0 -19 9 -21 19 -4 14 -5 14 -7 -3z"/>
<path d="M8913 6960 c0 -41 2 -63 4 -47 2 15 9 25 14 22 5 -4 9 -1 9 6 0 7 10
24 22 38 19 22 18 22 -9 -3 l-32 -29 -4 44 c-2 24 -4 11 -4 -31z"/>
<path d="M10120 6960 c0 -40 2 -71 5 -68 7 7 9 128 1 135 -3 3 -6 -27 -6 -67z"/>
<path d="M9068 7008 c-3 -7 -2 -22 3 -33 6 -17 8 -17 8 -2 1 9 9 17 19 18 13
0 14 2 2 6 -8 3 -18 10 -21 15 -3 5 -8 4 -11 -4z"/>
<path d="M10048 7008 c-2 -7 -1 -31 3 -53 6 -40 6 -39 8 13 1 51 -3 65 -11 40z"/>
<path d="M9785 7000 c-8 -13 8 -18 29 -10 19 6 19 7 -2 12 -12 4 -24 2 -27 -2z"/>
<path d="M6616 6978 c-9 -12 -16 -29 -16 -38 1 -8 7 0 15 18 15 34 48 43 75
20 12 -11 12 -10 1 5 -19 24 -57 21 -75 -5z"/>
<path d="M6746 6984 c-34 -33 -9 -96 37 -93 l22 2 -22 4 c-45 9 -58 64 -20 87
27 17 52 -5 53 -48 2 -62 14 -53 14 10 0 37 -4 54 -9 45 -6 -9 -11 -10 -15 -2
-10 16 -42 14 -60 -5z"/>
<path d="M6870 6990 c0 -13 18 -22 24 -11 3 5 -1 11 -9 15 -8 3 -15 1 -15 -4z"/>
<path d="M6938 6988 c6 -7 15 -29 20 -48 7 -24 10 -28 11 -13 1 30 -16 73 -30
73 -8 0 -8 -4 -1 -12z"/>
<path d="M7028 6993 c7 -3 16 -2 19 1 4 3 -2 6 -13 5 -11 0 -14 -3 -6 -6z"/>
<path d="M7178 6986 c-35 -26 -10 -96 33 -96 8 0 3 6 -11 13 -30 15 -35 64 -7
81 37 24 74 -35 45 -72 -12 -15 -11 -16 5 -3 22 18 22 54 -1 74 -22 20 -41 21
-64 3z"/>
<path d="M7428 6988 c-2 -7 -1 -26 3 -43 6 -28 7 -26 8 13 1 42 -3 53 -11 30z"/>
<path d="M7642 6988 c-7 -7 -12 -16 -12 -22 0 -5 6 -3 13 6 6 9 21 18 32 21
20 5 20 5 0 6 -12 0 -26 -4 -33 -11z"/>
<path d="M7720 6989 c0 -5 -5 -7 -11 -3 -7 4 -7 -1 1 -16 6 -12 10 -30 7 -40
-2 -10 -1 -24 4 -31 5 -9 9 7 9 44 0 31 -2 57 -5 57 -3 0 -5 -5 -5 -11z"/>
<path d="M7829 6983 c-13 -16 -12 -17 4 -4 9 7 17 15 17 17 0 8 -8 3 -21 -13z"/>
<path d="M7878 6990 c12 -5 22 -17 22 -26 0 -13 -9 -15 -45 -12 -25 2 -45 0
-45 -4 0 -5 23 -8 50 -8 41 0 50 3 50 18 0 22 -19 42 -39 41 -10 0 -7 -4 7 -9z"/>
<path d="M7998 6993 c12 -2 22 -12 23 -21 3 -50 7 -73 12 -79 11 -10 8 53 -3
81 -7 18 -16 26 -32 25 l-23 -2 23 -4z"/>
<path d="M8204 6978 c0 -15 2 -16 16 -3 20 18 46 19 57 3 4 -7 10 -31 14 -53
l6 -40 2 35 c2 51 -22 81 -62 77 -23 -1 -33 -7 -33 -19z"/>
<path d="M8345 6990 c-3 -6 1 -7 9 -4 18 7 21 14 7 14 -6 0 -13 -4 -16 -10z"/>
<path d="M8398 6984 c12 -8 22 -19 22 -25 0 -14 -78 -11 -83 4 -3 6 -6 0 -6
-15 -2 -49 51 -77 80 -41 13 15 12 15 -9 2 -16 -10 -27 -11 -39 -3 -34 21 -26
34 21 34 33 0 46 4 46 14 0 17 -27 46 -43 46 -6 0 -1 -7 11 -16z"/>
<path d="M8463 6993 c9 -2 23 -2 30 0 6 3 -1 5 -18 5 -16 0 -22 -2 -12 -5z"/>
<path d="M8590 6993 c0 -5 8 -17 17 -28 14 -18 15 -18 9 -2 -3 10 -6 23 -6 28
0 5 -4 9 -10 9 -5 0 -10 -3 -10 -7z"/>
<path d="M8710 6981 c-5 -11 -10 -28 -10 -39 0 -22 30 -52 52 -52 22 0 48 33
47 61 -1 22 -2 21 -8 -5 -8 -37 -34 -55 -58 -40 -40 25 -21 90 24 81 12 -2 20
0 17 4 -10 17 -53 9 -64 -10z"/>
<path d="M8833 6980 c1 -11 5 -20 9 -20 11 0 10 28 -1 35 -6 3 -9 -4 -8 -15z"/>
<path d="M8860 6989 c0 -5 5 -7 10 -4 6 3 10 8 10 11 0 2 -4 4 -10 4 -5 0 -10
-5 -10 -11z"/>
<path d="M9158 6989 c-22 -13 -24 -62 -2 -83 21 -21 47 -20 67 2 22 24 21 55
-1 75 -21 19 -39 21 -64 6z m62 -13 c28 -35 -11 -93 -47 -70 -22 14 -29 64
-11 75 20 13 44 11 58 -5z"/>
<path d="M9339 6983 c-12 -16 -12 -17 1 -6 8 6 26 13 40 16 l25 4 -26 2 c-15
0 -33 -7 -40 -16z"/>
<path d="M9452 6940 c1 -50 2 -51 5 -13 3 28 11 47 24 57 20 14 20 14 -5 12
-25 -1 -26 -3 -24 -56z"/>
<path d="M9546 6991 c-3 -4 6 -6 20 -3 16 3 30 -1 35 -9 14 -23 11 -28 -23
-32 -32 -4 -32 -4 5 -5 39 -2 44 6 27 39 -11 19 -54 27 -64 10z"/>
<path d="M9663 6985 c-7 -8 -13 -24 -12 -37 1 -22 1 -22 8 2 4 14 18 30 31 37
22 11 22 13 5 12 -11 0 -26 -6 -32 -14z"/>
<path d="M9740 6960 c0 -33 -4 -42 -25 -52 -19 -8 -28 -8 -40 2 -9 8 -15 8
-15 2 0 -16 37 -24 59 -13 14 8 21 8 24 -2 3 -6 6 14 6 46 1 31 -1 57 -4 57
-3 0 -5 -18 -5 -40z"/>
<path d="M9876 6984 c-9 -8 -16 -23 -16 -32 0 -15 7 -17 43 -12 l42 5 -38 3
c-39 3 -45 17 -14 36 12 8 23 7 39 -3 21 -13 22 -13 9 2 -17 21 -45 22 -65 1z"/>
<path d="M10150 6996 c0 -2 11 -6 25 -8 13 -3 22 -1 19 3 -5 9 -44 13 -44 5z"/>
<path d="M10263 6988 c-6 -7 -13 -21 -16 -30 -6 -16 0 -18 43 -18 42 0 50 3
50 19 0 10 -8 25 -17 32 -15 11 -16 11 -5 -1 22 -25 14 -40 -23 -40 -41 0 -49
25 -12 40 15 6 17 9 6 9 -9 1 -21 -5 -26 -11z"/>
<path d="M7291 6974 c0 -11 3 -14 6 -6 3 7 2 16 -1 19 -3 4 -6 -2 -5 -13z"/>
<path d="M7371 6974 c0 -11 3 -14 6 -6 3 7 2 16 -1 19 -3 4 -6 -2 -5 -13z"/>
<path d="M7942 6944 c-1 -51 4 -56 9 -9 2 17 7 36 12 43 7 8 5 12 -6 12 -10 0
-15 -12 -15 -46z"/>
<path d="M7000 6971 c0 -6 4 -13 10 -16 6 -3 7 1 4 9 -7 18 -14 21 -14 7z"/>
<path d="M7562 6953 c-3 -41 6 -63 26 -63 14 0 14 1 -1 13 -9 6 -18 28 -20 47
l-4 35 -1 -32z"/>
<path d="M9524 6955 c-8 -21 22 -65 45 -65 10 0 25 8 32 18 11 14 11 15 -1 5
-31 -28 -72 -3 -65 40 4 21 -4 22 -11 2z"/>
<path d="M10203 6930 c0 -25 2 -35 4 -22 2 12 2 32 0 45 -2 12 -4 2 -4 -23z"/>
<path d="M6872 6930 c0 -19 2 -27 5 -17 2 9 2 25 0 35 -3 9 -5 1 -5 -18z"/>
<path d="M8541 6944 c0 -11 3 -14 6 -6 3 7 2 16 -1 19 -3 4 -6 -2 -5 -13z"/>
<path d="M9321 6944 c0 -11 3 -14 6 -6 3 7 2 16 -1 19 -3 4 -6 -2 -5 -13z"/>
<path d="M7290 6938 c0 -22 27 -48 48 -47 15 0 14 1 -2 8 -10 4 -24 18 -32 32
-10 17 -13 19 -14 7z"/>
<path d="M7621 6945 c-3 -37 58 -71 75 -43 4 7 3 8 -5 4 -18 -11 -47 2 -59 27
-6 12 -11 17 -11 12z"/>
<path d="M8202 6930 c0 -14 2 -19 5 -12 2 6 2 18 0 25 -3 6 -5 1 -5 -13z"/>
<path d="M8832 6930 c0 -14 2 -19 5 -12 2 6 2 18 0 25 -3 6 -5 1 -5 -13z"/>
<path d="M7370 6916 c0 -8 4 -17 9 -20 5 -4 7 3 4 14 -6 23 -13 26 -13 6z"/>
<path d="M7820 6924 c0 -18 27 -36 47 -31 14 4 14 5 -4 6 -12 0 -27 9 -32 19
-6 9 -11 12 -11 6z"/>
<path d="M8570 6921 c0 -7 -4 -9 -10 -6 -5 3 -10 2 -10 -4 0 -5 4 -12 9 -15
10 -6 25 24 16 32 -3 3 -5 0 -5 -7z"/>
<path d="M8627 6912 c1 -8 3 -16 3 -18 0 -3 5 -2 10 1 6 3 10 11 10 16 0 6 -4
8 -9 5 -5 -4 -11 -3 -14 1 -2 5 -2 2 0 -5z"/>
<path d="M10250 6921 c0 -10 19 -25 25 -20 1 2 -3 10 -11 17 -8 7 -14 8 -14 3z"/>
<path d="M6499 6907 c7 -10 21 -17 31 -17 10 0 24 7 31 17 13 15 12 15 -8 2
-20 -12 -26 -12 -45 0 -21 13 -22 13 -9 -2z"/>
<path d="M6665 6905 c-16 -8 -23 -14 -14 -15 8 0 24 7 35 15 23 18 18 18 -21
0z"/>
<path d="M7009 6908 c14 -19 46 -24 55 -9 4 5 -3 7 -14 4 -11 -3 -28 1 -38 8
-15 13 -16 12 -3 -3z"/>
<path d="M8950 6916 c0 -2 8 -10 18 -17 15 -13 16 -12 3 4 -13 16 -21 21 -21
13z"/>
<path d="M9082 6904 c10 -10 20 -16 22 -13 3 3 -5 11 -17 18 -21 13 -21 12 -5
-5z"/>
<path d="M9342 6905 c17 -18 68 -14 68 5 0 6 -9 5 -20 -2 -16 -10 -24 -10 -42
1 -22 12 -22 12 -6 -4z"/>
<path d="M9870 6910 c0 -9 39 -25 45 -18 2 2 -7 8 -21 15 -13 6 -24 7 -24 3z"/>
<path d="M10306 6904 c-17 -12 -17 -14 -4 -14 9 0 20 5 23 11 11 17 2 18 -19
3z"/>
<path d="M9807 6899 c7 -7 15 -10 18 -7 3 3 -2 9 -12 12 -14 6 -15 5 -6 -5z"/>
<path d="M10067 6899 c7 -7 15 -10 18 -7 3 3 -2 9 -12 12 -14 6 -15 5 -6 -5z"/>
<path d="M7949 6668 c-1 -7 -1 -16 0 -20 0 -5 -4 -8 -11 -8 -9 0 -9 -3 -1 -11
7 -7 17 -8 28 -2 16 9 16 10 0 17 -14 5 -15 9 -5 21 9 10 9 15 1 15 -6 0 -12
-6 -12 -12z"/>
<path d="M6759 6655 c-3 -11 -2 -31 2 -45 6 -23 7 -23 8 -3 1 12 9 24 19 26
15 4 15 5 0 6 -9 0 -18 9 -20 19 -3 15 -4 14 -9 -3z"/>
<path d="M7233 6600 c0 -41 2 -58 4 -37 2 20 2 54 0 75 -2 20 -4 3 -4 -38z"/>
<path d="M7339 6655 c-2 -11 -1 -42 2 -70 l6 -50 1 48 c1 30 6 47 15 47 8 0 9
3 1 8 -6 4 -13 14 -16 22 -3 11 -6 9 -9 -5z"/>
<path d="M6538 6633 c42 -8 54 -73 15 -87 -23 -9 -51 2 -56 22 -4 15 -5 15 -6
-1 -1 -20 40 -42 63 -34 9 4 21 18 28 31 14 33 -12 77 -45 75 l-22 -2 23 -4z"/>
<path d="M6622 6565 c1 -44 3 -66 5 -48 4 29 6 31 27 21 25 -11 66 3 66 23 0
6 -7 3 -16 -5 -41 -42 -102 20 -61 63 8 9 8 12 0 7 -6 -3 -14 0 -16 6 -3 7 -5
-23 -5 -67z"/>
<path d="M6675 6633 c11 -3 26 -12 33 -21 6 -9 12 -11 12 -6 0 17 -23 34 -44
33 -21 -1 -21 -1 -1 -6z"/>
<path d="M6880 6608 c0 -34 2 -34 18 -1 9 17 9 22 -3 27 -11 4 -15 -2 -15 -26z"/>
<path d="M6938 6630 c12 -5 22 -17 22 -27 0 -15 2 -16 10 -3 11 17 -13 40 -39
39 -10 0 -7 -4 7 -9z"/>
<path d="M7020 6627 c27 -15 36 -14 25 2 -3 6 -16 11 -28 11 -21 0 -21 -1 3
-13z"/>
<path d="M7108 6629 c-37 -21 -10 -99 33 -99 8 0 3 6 -11 13 -31 15 -37 52
-14 78 19 21 17 23 -8 8z"/>
<path d="M7157 6625 c12 -9 23 -29 26 -48 3 -23 4 -18 5 18 1 31 -2 45 -7 36
-6 -9 -11 -10 -15 -2 -4 6 -12 11 -19 11 -6 0 -2 -7 10 -15z"/>
<path d="M7422 6628 c-7 -7 -12 -16 -12 -22 0 -5 6 -3 13 6 6 9 21 18 32 21
20 5 20 5 0 6 -12 0 -26 -4 -33 -11z"/>
<path d="M7549 6623 c-12 -16 -12 -17 1 -7 8 7 24 14 35 17 19 4 19 5 -1 6
-12 0 -28 -7 -35 -16z"/>
<path d="M7630 6629 c0 -5 -6 -7 -12 -3 -9 6 -9 3 1 -9 7 -9 11 -27 8 -39 -4
-13 -2 -29 2 -37 5 -8 9 9 9 43 0 31 -2 56 -4 56 -2 0 -4 -5 -4 -11z"/>
<path d="M7676 6625 c-3 -8 -1 -17 3 -20 5 -3 11 2 15 10 3 8 1 17 -3 20 -5 3
-11 -2 -15 -10z"/>
<path d="M7744 6625 c8 -8 18 -15 22 -15 3 0 1 7 -6 15 -7 8 -17 15 -22 15 -5
0 -3 -7 6 -15z"/>
<path d="M7798 6633 c7 -3 16 -2 19 1 4 3 -2 6 -13 5 -11 0 -14 -3 -6 -6z"/>
<path d="M8059 6631 c13 -3 28 -15 32 -26 5 -14 8 -15 8 -4 1 21 -19 39 -43
38 -18 -1 -18 -2 3 -8z"/>
<path d="M8158 6633 c-12 -3 -18 -14 -17 -31 1 -21 2 -23 6 -7 3 11 13 25 22
32 17 13 16 13 -11 6z"/>
<path d="M8260 6635 c0 -5 5 -17 10 -25 5 -8 10 -10 10 -5 0 6 -5 17 -10 25
-5 8 -10 11 -10 5z"/>
<path d="M8341 6633 c-1 -6 -4 -20 -7 -30 -5 -17 -5 -17 6 0 6 10 9 23 6 30
-3 9 -5 9 -5 0z"/>
<path d="M8390 6621 c-14 -28 -12 -57 6 -75 32 -32 84 -8 84 38 0 48 -69 76
-90 37z m68 -3 c28 -28 3 -84 -34 -76 -43 8 -44 88 -1 88 13 0 28 -5 35 -12z"/>
<path d="M8643 6583 l-1 -58 8 50 c5 27 6 53 1 58 -4 4 -8 -18 -8 -50z"/>
<path d="M8770 6615 c0 -15 4 -24 10 -20 6 3 10 12 10 20 0 8 -4 17 -10 20 -6
4 -10 -5 -10 -20z"/>
<path d="M8825 6633 c30 -8 45 -23 45 -48 0 -29 -24 -49 -50 -42 -11 3 -18 1
-14 -4 17 -28 74 9 74 48 0 25 -30 53 -56 52 -18 -1 -18 -2 1 -6z"/>
<path d="M8999 6623 c-11 -15 -11 -16 1 -5 20 18 57 15 69 -5 6 -10 11 -13 11
-7 1 33 -59 46 -81 17z"/>
<path d="M9120 6563 c-3 -45 -1 -78 3 -74 4 4 7 41 5 82 l-3 74 -5 -82z"/>
<path d="M9177 6622 c-18 -19 -15 -58 4 -76 8 -8 8 -5 0 12 -11 21 -10 22 34
22 38 0 45 3 45 20 0 19 -27 40 -53 40 -8 0 -21 -8 -30 -18z m57 2 c33 -13 17
-34 -24 -34 -41 0 -49 7 -28 28 13 13 28 15 52 6z"/>
<path d="M9309 6623 c-13 -16 -12 -17 3 -4 11 8 28 11 45 7 21 -5 24 -4 13 4
-23 15 -46 12 -61 -7z"/>
<path d="M9417 6624 c3 -9 9 -11 12 -6 3 5 13 12 21 15 9 3 4 6 -12 6 -21 1
-26 -3 -21 -15z"/>
<path d="M6495 6619 c-4 -6 -5 -12 -2 -15 2 -3 7 2 10 11 7 17 1 20 -8 4z"/>
<path d="M7486 6617 c3 -10 9 -15 12 -12 3 3 0 11 -7 18 -10 9 -11 8 -5 -6z"/>
<path d="M7837 6584 c3 -27 7 -51 9 -53 8 -9 3 75 -5 88 -5 8 -7 -5 -4 -35z"/>
<path d="M8012 6618 c-41 -41 19 -111 68 -78 11 8 8 9 -13 4 -16 -4 -33 -1
-42 6 -18 15 -20 51 -3 68 7 7 10 12 7 12 -3 0 -10 -5 -17 -12z"/>
<path d="M8511 6598 c-1 -39 19 -68 47 -68 12 0 9 4 -8 13 -18 9 -27 23 -31
52 l-6 40 -2 -37z"/>
<path d="M8916 6615 c-3 -9 -6 -29 -5 -43 1 -22 3 -19 10 12 10 40 6 60 -5 31z"/>
<path d="M6831 6604 c0 -11 3 -14 6 -6 3 7 2 16 -1 19 -3 4 -6 -2 -5 -13z"/>
<path d="M7531 6588 c-1 -21 33 -58 53 -58 8 0 18 5 22 12 4 7 3 8 -5 4 -19
-12 -49 4 -60 32 -6 17 -10 21 -10 10z"/>
<path d="M8981 6589 c-1 -8 6 -24 15 -35 15 -19 15 -19 6 1 -5 11 -12 27 -15
35 -5 13 -6 13 -6 -1z"/>
<path d="M9291 6583 c-2 -45 53 -70 80 -36 13 15 12 15 -9 2 -27 -17 -53 -4
-63 32 -7 23 -7 23 -8 2z"/>
<path d="M7400 6582 c0 -5 7 -17 16 -28 15 -18 15 -18 4 3 -10 21 -8 22 37 26
l48 3 -52 2 c-29 1 -53 -2 -53 -6z"/>
<path d="M7676 6564 c4 -38 14 -42 14 -6 0 18 -4 32 -9 32 -4 0 -7 -12 -5 -26z"/>
<path d="M7762 6560 c0 -19 2 -27 5 -17 2 9 2 25 0 35 -3 9 -5 1 -5 -18z"/>
<path d="M9077 6583 c-4 -3 -7 -11 -7 -17 0 -6 5 -5 12 2 6 6 9 14 7 17 -3 3
-9 2 -12 -2z"/>
<path d="M6832 6560 c0 -14 2 -19 5 -12 2 6 2 18 0 25 -3 6 -5 1 -5 -13z"/>
<path d="M8773 6543 c-1 -38 -1 -38 8 -8 5 16 5 33 0 38 -4 4 -8 -9 -8 -30z"/>
<path d="M6882 6550 c0 -14 2 -19 5 -12 2 6 2 18 0 25 -3 6 -5 1 -5 -13z"/>
<path d="M8141 6554 c0 -11 3 -14 6 -6 3 7 2 16 -1 19 -3 4 -6 -2 -5 -13z"/>
<path d="M8294 6529 l-2 -42 14 33 c16 38 17 43 5 36 -5 -4 -11 -1 -13 4 -2 6
-4 -8 -4 -31z"/>
<path d="M8586 6555 c-3 -8 -1 -15 4 -15 6 0 10 7 10 15 0 8 -2 15 -4 15 -2 0
-6 -7 -10 -15z"/>
<path d="M7480 6549 c0 -5 5 -7 10 -4 6 3 10 8 10 11 0 2 -4 4 -10 4 -5 0 -10
-5 -10 -11z"/>
<path d="M6777 6539 c7 -7 15 -10 18 -7 3 3 -2 9 -12 12 -14 6 -15 5 -6 -5z"/>
<path d="M9035 6540 c-13 -6 -15 -9 -5 -9 8 0 22 4 30 9 18 12 2 12 -25 0z"/>
<path d="M9437 6539 c7 -7 15 -10 18 -7 3 3 -2 9 -12 12 -14 6 -15 5 -6 -5z"/>
<path d="M7448 6533 c7 -3 16 -2 19 1 4 3 -2 6 -13 5 -11 0 -14 -3 -6 -6z"/>
<path d="M9208 6533 c7 -3 16 -2 19 1 4 3 -2 6 -13 5 -11 0 -14 -3 -6 -6z"/>
<path d="M9910 5762 l0 -99 317 -6 c174 -4 365 -7 425 -7 l108 0 0 105 0 105
-425 0 -425 0 0 -98z m150 -7 c0 -18 -5 -25 -19 -25 -11 0 -21 6 -24 13 -7 20
4 37 24 37 14 0 19 -7 19 -25z m100 -1 c0 -21 -4 -25 -22 -22 -15 2 -24 11
-26 26 -3 18 1 22 22 22 21 0 26 -5 26 -26z m90 1 c0 -18 -5 -25 -20 -25 -15
0 -20 7 -20 25 0 18 5 25 20 25 15 0 20 -7 20 -25z"/>
<path d="M2017 5583 c-15 -14 -7 -43 12 -43 23 0 34 23 18 39 -13 13 -21 14
-30 4z"/>
<path d="M12580 5455 c0 -108 1 -115 20 -115 19 0 20 7 20 115 0 108 -1 115
-20 115 -19 0 -20 -7 -20 -115z"/>
<path d="M13070 5455 c0 -108 1 -115 20 -115 19 0 20 7 20 115 0 108 -1 115
-20 115 -19 0 -20 -7 -20 -115z"/>
<path d="M894 5552 c-6 -4 -16 -16 -22 -28 -17 -32 6 -66 58 -85 48 -18 60
-38 36 -58 -16 -13 -56 -6 -56 10 0 5 -9 9 -20 9 -27 0 -25 -25 2 -44 31 -22
84 -20 108 4 41 41 17 91 -54 111 -30 8 -37 14 -34 32 4 27 39 34 58 12 14
-17 50 -21 50 -5 0 6 -9 19 -20 30 -20 20 -83 28 -106 12z"/>
<path d="M12154 5542 c-81 -65 -46 -187 57 -199 38 -4 50 -1 77 22 18 15 32
31 32 36 0 15 -47 10 -60 -6 -7 -8 -27 -15 -46 -15 -62 0 -87 78 -39 125 28
29 51 31 83 9 12 -8 32 -14 45 -12 22 3 21 4 -7 31 -23 21 -38 27 -75 27 -28
0 -54 -7 -67 -18z"/>
<path d="M13389 5550 c-1 -5 -2 -15 -3 -20 0 -6 -5 -14 -11 -18 -15 -11 -17
-32 -2 -32 8 0 13 -19 15 -57 2 -60 17 -83 53 -83 28 0 32 29 5 40 -20 7 -24
16 -24 54 -1 39 2 46 18 46 26 0 26 26 0 33 -12 3 -20 14 -20 26 0 21 -29 31
-31 11z"/>
<path d="M1350 5510 c-8 -6 -27 -7 -42 -4 l-28 6 0 -126 c0 -105 2 -126 15
-126 11 0 15 12 15 51 0 45 2 50 18 44 43 -19 73 -17 98 6 64 60 -5 196 -76
149z m48 -42 c19 -19 14 -65 -9 -81 -27 -20 -58 -10 -70 21 -19 49 43 96 79
60z"/>
<path d="M1530 5507 c-53 -27 -64 -89 -24 -136 29 -35 75 -41 112 -15 45 31
24 40 -44 19 -23 -7 -59 19 -49 36 4 5 33 9 66 9 51 0 59 2 59 19 0 33 -11 51
-41 66 -34 18 -47 18 -79 2z m78 -49 c3 -15 -4 -18 -37 -18 -39 0 -53 14 -34
34 14 14 68 1 71 -16z"/>
<path d="M1752 5504 c-12 -8 -22 -10 -22 -5 0 6 -9 11 -20 11 -18 0 -20 -7
-20 -85 0 -78 2 -85 20 -85 16 0 19 8 22 63 3 56 5 62 26 65 16 3 22 10 22 28
0 28 1 28 -28 8z"/>
<path d="M2123 5508 c-50 -24 -35 -72 29 -94 18 -6 34 -16 36 -22 6 -18 -28
-27 -49 -14 -43 27 -67 6 -27 -22 31 -22 81 -20 102 3 27 30 16 54 -36 79 -50
23 -59 36 -33 46 18 6 45 -2 45 -15 0 -5 9 -9 20 -9 32 0 22 28 -17 49 -26 13
-41 13 -70 -1z"/>
<path d="M2303 5501 c-73 -46 -38 -161 50 -161 39 0 87 49 87 89 0 67 -78 109
-137 72z m87 -42 c25 -46 -18 -102 -60 -79 -47 25 -32 100 20 100 19 0 33 -7
40 -21z"/>
<path d="M2545 5509 c-4 -6 -19 -7 -36 -4 -31 7 -32 5 -31 -70 1 -88 2 -95 17
-95 11 0 15 12 15 46 0 55 14 84 40 84 15 0 20 7 20 25 0 26 -14 33 -25 14z"/>
<path d="M12385 5498 c-21 -19 -28 -33 -29 -65 -1 -70 58 -113 115 -83 13 7
19 7 19 0 0 -5 9 -10 20 -10 18 0 20 7 20 85 l0 85 -32 -1 c-18 0 -45 2 -59 6
-19 5 -33 1 -54 -17z m93 -30 c19 -19 14 -65 -9 -81 -26 -19 -58 -10 -71 19
-22 47 44 98 80 62z"/>
<path d="M12705 5508 c-32 -19 -44 -40 -45 -81 0 -75 91 -118 140 -65 11 12
20 25 20 30 0 13 -33 9 -54 -7 -25 -19 -31 -19 -50 1 -19 18 -21 65 -4 82 15
15 54 16 63 2 8 -13 45 -13 45 -1 0 16 -51 51 -74 51 -11 0 -30 -6 -41 -12z"/>
<path d="M13188 5500 c-79 -61 -18 -187 74 -152 16 6 28 6 28 1 0 -5 9 -9 20
-9 18 0 20 7 20 85 l0 85 -32 -1 c-18 0 -44 2 -58 6 -18 5 -33 0 -52 -15z m90
-32 c19 -19 14 -65 -9 -81 -44 -31 -94 17 -71 68 13 27 58 35 80 13z"/>
<path d="M13534 5501 c-51 -31 -55 -90 -11 -138 30 -34 81 -31 118 6 74 75
-17 188 -107 132z m86 -42 c25 -46 -18 -102 -60 -79 -47 25 -32 100 20 100 19
0 33 -7 40 -21z"/>
<path d="M13776 5513 c-4 -4 -20 -7 -36 -8 -17 0 -30 -3 -30 -7 -1 -146 1
-158 15 -158 11 0 15 12 15 46 0 55 14 84 40 84 15 0 20 7 20 25 0 25 -10 32
-24 18z"/>
<path d="M1060 5458 c0 -29 6 -64 13 -78 17 -33 61 -49 90 -31 15 10 22 10 25
2 2 -6 12 -11 23 -11 17 0 19 8 19 85 0 78 -2 85 -20 85 -17 0 -20 -7 -20 -52
0 -60 -6 -72 -36 -82 -35 -11 -54 17 -54 80 0 47 -2 54 -20 54 -17 0 -20 -7
-20 -52z"/>
<path d="M1834 5425 c28 -76 34 -85 56 -85 23 0 28 9 53 78 32 91 32 92 9 92
-14 0 -23 -15 -37 -60 -10 -33 -21 -60 -25 -60 -4 0 -15 27 -25 60 -15 50 -22
60 -40 60 l-23 0 32 -85z"/>
<path d="M2010 5425 c0 -78 2 -85 20 -85 18 0 20 7 20 85 0 78 -2 85 -20 85
-18 0 -20 -7 -20 -85z"/>
<path d="M12860 5451 c0 -71 25 -111 70 -111 16 0 32 4 35 10 4 6 13 5 25 -2
23 -15 27 -11 30 22 6 72 -1 140 -14 140 -9 0 -15 -17 -18 -56 -5 -53 -23 -84
-49 -84 -23 0 -39 35 -39 86 0 47 -2 54 -20 54 -18 0 -20 -7 -20 -59z"/>
<path d="M10224 5352 c-94 -82 -110 -99 -100 -114 9 -16 12 -16 28 -1 10 9 18
13 18 9 0 -6 33 22 114 97 l41 37 3 -60 c2 -44 7 -60 17 -60 10 0 15 -10 15
-30 0 -19 -5 -30 -14 -30 -9 0 -15 -17 -18 -51 -6 -62 -1 -89 18 -89 8 0 14
-10 14 -25 0 -24 2 -25 75 -25 l75 0 1 88 c1 48 1 99 0 115 -1 25 1 26 19 15
16 -11 22 -10 33 7 13 17 6 26 -96 114 -60 53 -115 97 -121 98 -6 1 -61 -41
-122 -95z"/>
<path d="M2989 4913 c0 -16 -1 -45 -3 -65 -2 -20 1 -43 5 -50 5 -7 9 20 9 65
0 42 -2 77 -5 77 -3 0 -5 -12 -6 -27z"/>
<path d="M3426 4924 c-5 -14 -4 -15 9 -4 17 14 19 20 6 20 -5 0 -12 -7 -15
-16z"/>
<path d="M12739 4905 c-6 -40 -4 -53 7 -43 3 3 4 23 2 44 l-3 39 -6 -40z"/>
<path d="M13196 4924 c-6 -15 -4 -15 11 -3 10 7 20 15 22 16 2 2 -3 3 -11 3
-9 0 -19 -7 -22 -16z"/>
<path d="M869 4914 c-2 -33 3 -119 7 -123 2 -2 4 19 4 48 0 35 4 50 11 45 7
-4 7 2 -1 17 -18 34 -20 35 -21 13z"/>
<path d="M1359 4915 c-2 -10 -2 -42 1 -70 4 -40 9 -50 25 -53 18 -2 18 -2 3 8
-12 7 -18 24 -18 50 0 28 5 40 18 43 15 4 15 5 0 6 -9 0 -18 9 -20 19 -4 15
-5 15 -9 -3z"/>
<path d="M2058 4913 c-7 -27 0 -33 27 -22 16 6 17 8 3 8 -9 1 -18 9 -20 19 -3
14 -5 13 -10 -5z"/>
<path d="M2349 4915 c-3 -11 -2 -29 2 -40 6 -16 8 -17 8 -3 1 9 9 19 19 21 15
4 15 5 0 6 -9 0 -18 9 -20 19 -3 15 -5 14 -9 -3z"/>
<path d="M3301 4918 c0 -10 -7 -18 -13 -18 -10 0 -10 -2 -1 -8 6 -4 13 -27 15
-52 2 -31 8 -45 18 -46 9 0 10 1 3 3 -8 3 -13 22 -13 48 0 33 4 45 18 48 15 4
15 5 0 6 -9 0 -19 9 -21 19 -4 16 -5 16 -6 0z"/>
<path d="M12932 4918 c-1 -10 -8 -18 -14 -18 -10 0 -10 -2 -1 -8 6 -4 13 -27
15 -52 2 -31 8 -45 18 -46 8 0 10 1 3 3 -7 3 -13 31 -16 71 -2 37 -4 59 -5 50z"/>
<path d="M14890 4915 c-8 -77 6 -125 35 -125 6 1 2 5 -7 11 -12 7 -18 22 -18
49 0 28 5 40 18 43 15 4 15 5 0 6 -9 0 -19 9 -21 19 -4 14 -5 14 -7 -3z"/>
<path d="M15982 4910 c0 -14 2 -19 5 -12 2 6 2 18 0 25 -3 6 -5 1 -5 -13z"/>
<path d="M976 4904 c-8 -22 -8 -26 3 -19 6 3 12 -16 14 -42 3 -44 4 -42 5 15
2 59 -9 81 -22 46z"/>
<path d="M4297 4907 c-8 -21 2 -27 28 -16 16 6 16 8 3 8 -9 1 -18 6 -20 13 -3
8 -7 6 -11 -5z"/>
<path d="M15121 4906 c-15 -18 -2 -26 24 -15 18 7 18 8 2 8 -10 1 -15 6 -12
11 9 15 -1 12 -14 -4z"/>
<path d="M1050 4885 c-19 -22 -8 -25 13 -3 9 10 13 18 8 18 -5 0 -14 -7 -21
-15z"/>
<path d="M1108 4884 c25 -17 28 -42 9 -69 -18 -23 -60 -14 -75 17 -6 13 -11
17 -11 11 -1 -19 36 -53 58 -53 22 0 51 35 51 61 0 17 -30 49 -46 49 -4 0 2
-7 14 -16z"/>
<path d="M1170 4845 c0 -32 2 -56 4 -54 8 7 10 98 3 105 -4 4 -7 -19 -7 -51z"/>
<path d="M1220 4891 c21 -6 26 -14 31 -56 l6 -50 1 46 c2 49 -11 70 -42 68
-18 -1 -17 -2 4 -8z"/>
<path d="M1303 4850 c0 -30 2 -43 4 -27 2 15 2 39 0 55 -2 15 -4 2 -4 -28z"/>
<path d="M1467 4893 c45 -9 58 -64 21 -87 -29 -18 -53 5 -52 49 1 24 -2 32 -7
24 -14 -23 -10 -55 9 -72 24 -22 45 -21 65 1 33 37 10 94 -36 91 l-22 -2 22
-4z"/>
<path d="M1562 4840 c1 -50 2 -51 5 -13 3 28 11 47 24 57 20 14 20 14 -5 12
-25 -1 -26 -3 -24 -56z"/>
<path d="M1670 4893 c8 -3 19 -11 23 -17 6 -7 7 -6 4 4 -2 8 -12 16 -23 17
-13 2 -15 1 -4 -4z"/>
<path d="M1806 4884 c-31 -30 -7 -94 35 -94 8 0 3 6 -11 13 -14 7 -26 23 -28
35 -7 44 41 70 68 37 7 -9 15 -13 18 -10 8 8 -30 34 -50 35 -9 0 -24 -7 -32
-16z"/>
<path d="M1946 4887 c-12 -9 -16 -22 -13 -42 l4 -30 2 32 c1 26 6 34 26 39 15
4 32 1 43 -7 15 -13 16 -12 3 4 -16 20 -40 22 -65 4z"/>
<path d="M2133 4845 c0 -33 2 -45 4 -27 2 18 2 45 0 60 -2 15 -4 0 -4 -33z"/>
<path d="M2170 4895 c0 -5 5 -17 10 -25 5 -8 10 -10 10 -5 0 6 -5 17 -10 25
-5 8 -10 11 -10 5z"/>
<path d="M2588 4878 c5 -18 7 -19 10 -6 2 9 11 19 20 21 10 3 6 5 -10 6 -22 1
-25 -2 -20 -21z"/>
<path d="M2675 4890 c-3 -5 -2 -10 4 -10 5 0 13 5 16 10 3 6 2 10 -4 10 -5 0
-13 -4 -16 -10z"/>
<path d="M2853 4850 c0 -30 2 -43 4 -27 2 15 2 39 0 55 -2 15 -4 2 -4 -28z"/>
<path d="M2907 4882 c-10 -10 -17 -25 -17 -33 0 -18 28 -59 41 -59 5 0 0 9
-11 20 -34 34 -23 71 25 83 19 4 19 5 -1 6 -11 0 -28 -7 -37 -17z"/>
<path d="M3046 4884 c-21 -21 -20 -57 2 -77 24 -22 46 -22 63 0 13 15 12 15
-9 2 -16 -10 -27 -11 -39 -3 -34 21 -26 34 21 34 33 0 46 4 46 14 0 20 -28 46
-50 46 -10 0 -26 -7 -34 -16z m62 -6 c21 -21 13 -28 -28 -28 -22 0 -40 4 -40
8 0 14 23 32 40 32 9 0 21 -5 28 -12z"/>
<path d="M3164 4878 c0 -15 2 -16 16 -3 9 8 24 15 34 15 19 0 40 -45 33 -72
-3 -10 -1 -18 4 -18 14 0 10 63 -5 83 -18 23 -82 20 -82 -5z"/>
<path d="M3373 4865 c0 -22 2 -30 4 -17 2 12 2 30 0 40 -3 9 -5 -1 -4 -23z"/>
<path d="M3418 4878 c5 -18 7 -19 10 -6 2 9 11 19 20 21 10 3 6 5 -10 6 -22 1
-25 -2 -20 -21z"/>
<path d="M3707 4893 c13 -2 30 -14 38 -26 8 -12 15 -17 15 -11 0 18 -35 44
-56 43 -15 -1 -15 -3 3 -6z"/>
<path d="M3793 4868 c-1 -31 0 -32 10 -10 7 15 7 26 0 33 -7 7 -10 -1 -10 -23z"/>
<path d="M3876 4878 c-20 -28 -20 -39 0 -64 14 -18 15 -18 4 5 -17 34 1 71 36
71 17 0 28 -6 31 -20 3 -11 10 -20 15 -20 6 0 4 10 -4 23 -21 31 -62 34 -82 5z"/>
<path d="M4000 4823 c-3 -45 -1 -78 3 -74 4 4 7 41 5 82 l-3 74 -5 -82z"/>
<path d="M4080 4896 c0 -2 11 -6 25 -8 13 -3 22 -1 19 3 -5 9 -44 13 -44 5z"/>
<path d="M4186 4884 c-21 -21 -20 -57 2 -77 24 -22 46 -22 63 0 13 15 12 15
-9 2 -30 -19 -57 -2 -57 37 0 20 7 32 25 41 17 9 20 13 8 13 -9 0 -24 -7 -32
-16z"/>
<path d="M4240 4891 c0 -5 5 -13 10 -16 6 -3 10 -2 10 4 0 5 -4 13 -10 16 -5
3 -10 2 -10 -4z"/>
<path d="M12263 4893 c-30 -12 -8 -46 37 -57 18 -4 16 -1 -7 9 -36 16 -40 24
-21 43 13 13 11 14 -9 5z"/>
<path d="M12302 4886 c7 -8 15 -12 17 -11 5 6 -10 25 -20 25 -5 0 -4 -6 3 -14z"/>
<path d="M12366 4878 c-24 -34 -20 -38 34 -38 43 0 50 3 50 19 0 11 -4 22 -9
25 -5 4 -7 -3 -4 -14 5 -18 0 -20 -36 -20 -38 0 -41 2 -31 19 5 11 20 22 32
24 l23 4 -22 2 c-12 0 -29 -9 -37 -21z"/>
<path d="M12489 4884 c-11 -14 -10 -18 6 -30 10 -8 24 -14 29 -13 6 0 1 5 -11
11 -13 6 -23 15 -23 20 0 16 33 21 54 8 19 -12 20 -12 7 3 -17 21 -45 22 -62
1z"/>
<path d="M12657 4882 c-10 -10 -17 -23 -17 -28 0 -4 7 1 15 13 8 12 25 24 38
26 21 4 21 4 1 6 -11 0 -28 -7 -37 -17z"/>
<path d="M12797 4882 c-31 -34 -11 -92 31 -92 20 1 58 27 50 35 -3 3 -11 -1
-18 -10 -25 -31 -70 -11 -70 31 0 30 24 48 55 40 17 -4 25 -14 26 -29 1 -19 2
-20 6 -3 6 21 -20 46 -47 46 -9 0 -24 -8 -33 -18z"/>
<path d="M13007 4882 c-21 -23 -21 -41 -1 -70 15 -22 48 -30 58 -13 3 4 -6 6
-19 3 -19 -3 -27 2 -37 23 -14 32 -3 56 33 66 21 6 22 7 3 8 -11 1 -28 -7 -37
-17z"/>
<path d="M13090 4889 c0 -5 -5 -7 -11 -3 -8 4 -7 0 1 -15 6 -12 9 -29 6 -39
-3 -9 -2 -23 3 -31 5 -8 9 8 9 43 0 31 -2 56 -4 56 -2 0 -4 -5 -4 -11z"/>
<path d="M13198 4893 c6 -2 18 -2 25 0 6 3 1 5 -13 5 -14 0 -19 -2 -12 -5z"/>
<path d="M13255 4864 c2 -42 15 -58 15 -19 0 15 7 33 15 39 13 9 12 11 -8 12
-20 1 -23 -3 -22 -32z"/>
<path d="M13390 4887 c18 -9 25 -21 25 -41 0 -57 -61 -61 -76 -5 -6 21 -7 22
-8 3 -1 -23 28 -54 51 -54 21 0 48 32 48 58 0 25 -25 52 -48 52 -12 0 -9 -4 8
-13z"/>
<path d="M13463 4868 c-1 -32 0 -32 15 -1 9 16 9 22 -1 26 -8 3 -13 -6 -14
-25z"/>
<path d="M13520 4887 c14 -8 24 -20 23 -28 -2 -8 4 -4 13 9 9 12 25 22 36 22
10 0 23 -10 28 -22 8 -18 9 -19 7 -4 -3 28 -33 44 -55 29 -12 -7 -24 -8 -33
-2 -8 5 -21 9 -29 9 -8 0 -4 -6 10 -13z"/>
<path d="M13732 4865 c0 -22 3 -30 5 -18 6 31 29 46 58 39 33 -8 35 -58 3 -80
-25 -18 -17 -21 13 -6 22 12 27 68 7 88 -15 15 -55 16 -64 1 -4 -8 -9 -7 -15
2 -6 9 -8 0 -7 -26z"/>
<path d="M13877 4882 c-10 -10 -17 -28 -17 -39 0 -22 29 -53 51 -53 8 0 3 6
-11 13 -31 15 -37 52 -14 78 9 10 15 19 12 19 -3 0 -12 -8 -21 -18z"/>
<path d="M14020 4896 c0 -2 11 -6 25 -8 13 -3 22 -1 19 3 -5 9 -44 13 -44 5z"/>
<path d="M14107 4884 c3 -9 9 -11 12 -6 3 5 13 12 21 15 9 3 4 6 -12 6 -21 1
-26 -3 -21 -15z"/>
<path d="M14240 4857 c0 -26 3 -47 8 -47 8 0 7 78 -2 87 -3 4 -6 -15 -6 -40z"/>
<path d="M14297 4893 c24 -5 40 -41 29 -68 -3 -9 -16 -20 -28 -25 -16 -6 -18
-9 -6 -9 25 -1 48 27 48 58 0 33 -17 51 -44 50 -19 -2 -19 -2 1 -6z"/>
<path d="M14381 4881 c-1 -23 0 -24 19 -6 23 20 28 34 6 16 -11 -9 -15 -9 -19
1 -3 7 -6 2 -6 -11z"/>
<path d="M14510 4887 c18 -9 25 -21 25 -41 0 -60 -63 -60 -76 0 -7 28 -7 28
-8 3 -1 -28 26 -59 51 -59 21 0 48 32 48 58 0 25 -25 52 -48 52 -12 0 -9 -4 8
-13z"/>
<path d="M14648 4889 c-24 -13 -23 -61 0 -82 24 -22 46 -22 63 0 13 15 12 15
-9 2 -16 -10 -27 -11 -39 -3 -34 21 -26 34 21 34 50 0 60 15 28 43 -21 19 -39
21 -64 6z m60 -11 c21 -21 13 -28 -28 -28 -28 0 -40 4 -40 14 0 25 48 34 68
14z"/>
<path d="M14800 4893 c14 -3 32 -10 40 -16 13 -11 13 -10 1 6 -7 9 -25 16 -40
16 l-26 -2 25 -4z"/>
<path d="M14962 4887 c-14 -17 -3 -33 31 -46 33 -13 35 -29 5 -41 -14 -5 -17
-9 -7 -9 18 -1 39 18 39 36 0 7 -11 15 -25 19 -13 3 -29 12 -36 20 -17 20 18
31 45 14 19 -12 20 -12 7 3 -16 20 -44 22 -59 4z"/>
<path d="M15206 4884 c-32 -31 -10 -94 33 -94 23 0 51 31 51 58 0 26 -25 52
-50 52 -10 0 -26 -7 -34 -16z m64 -8 c28 -35 -11 -93 -47 -70 -36 22 -23 84
17 84 10 0 23 -7 30 -14z"/>
<path d="M15381 4858 c-1 -27 3 -48 7 -48 4 0 6 17 4 38 -5 58 -10 62 -11 10z"/>
<path d="M15439 4891 c13 -3 28 -15 32 -26 5 -14 8 -15 8 -4 1 21 -19 39 -43
38 -18 -1 -18 -2 3 -8z"/>
<path d="M15521 4845 l2 -60 7 50 c4 28 3 54 -1 60 -5 5 -8 -16 -8 -50z"/>
<path d="M15606 4884 c-22 -22 -20 -31 2 -11 33 30 72 15 72 -29 0 -48 -55
-58 -77 -14 -9 17 -13 20 -13 8 0 -22 27 -48 49 -48 23 0 51 31 51 58 0 26
-25 52 -50 52 -10 0 -26 -7 -34 -16z"/>
<path d="M15721 4890 c0 -8 6 -28 14 -45 17 -39 18 -21 0 25 -7 19 -14 28 -14
20z"/>
<path d="M15843 4850 c0 -30 2 -43 4 -27 2 15 2 39 0 55 -2 15 -4 2 -4 -28z"/>
<path d="M15896 4878 c-9 -12 -16 -29 -16 -38 1 -8 7 -1 15 17 8 19 22 33 37
36 22 4 22 4 1 6 -12 0 -29 -9 -37 -21z"/>
<path d="M16046 4891 c-4 -5 3 -7 14 -4 20 5 50 -12 50 -28 0 -14 -78 -11 -83
4 -3 6 -6 0 -6 -14 -2 -48 52 -76 80 -42 13 15 12 15 -9 2 -16 -10 -27 -11
-39 -3 -34 21 -26 34 21 34 33 0 46 4 46 14 0 33 -59 62 -74 37z"/>
<path d="M3550 4869 c-7 -11 -10 -23 -7 -25 2 -2 9 7 15 21 14 30 7 33 -8 4z"/>
<path d="M3653 4830 c0 -34 2 -59 5 -56 7 8 10 116 2 116 -4 0 -7 -27 -7 -60z"/>
<path d="M4052 4878 c-7 -7 -12 -20 -12 -29 0 -13 6 -16 23 -11 18 5 19 7 5
10 -21 4 -23 13 -6 30 7 7 10 12 7 12 -3 0 -10 -5 -17 -12z"/>
<path d="M13340 4879 c0 -5 5 -7 10 -4 6 3 10 8 10 11 0 2 -4 4 -10 4 -5 0
-10 -5 -10 -11z"/>
<path d="M13952 4865 c0 -16 2 -22 5 -12 2 9 2 23 0 30 -3 6 -5 -1 -5 -18z"/>
<path d="M14001 4879 c-1 -20 16 -35 49 -43 21 -5 20 -4 -4 8 -17 7 -33 22
-37 32 -6 15 -8 16 -8 3z"/>
<path d="M15791 4883 c-1 -6 -4 -20 -7 -30 -5 -17 -5 -17 6 0 6 10 9 23 6 30
-3 9 -5 9 -5 0z"/>
<path d="M15970 4875 c7 -8 10 -25 7 -37 -4 -13 -2 -30 3 -38 7 -11 10 -2 10
31 0 34 -4 49 -16 53 -14 5 -15 4 -4 -9z"/>
<path d="M2295 4850 c0 -16 3 -30 7 -30 5 0 8 14 8 30 0 17 -4 30 -8 30 -4 0
-8 -13 -7 -30z"/>
<path d="M2420 4875 c0 -5 5 -17 10 -25 5 -8 10 -10 10 -5 0 6 -5 17 -10 25
-5 8 -10 11 -10 5z"/>
<path d="M1639 4858 c7 -10 21 -18 30 -18 9 0 23 -6 31 -12 12 -11 12 -10 1 5
-7 9 -21 17 -30 17 -9 0 -23 6 -31 13 -12 10 -12 9 -1 -5z"/>
<path d="M2064 4835 c1 -31 5 -41 21 -43 18 -4 19 -3 3 10 -9 7 -19 27 -21 43
-3 21 -4 18 -3 -10z"/>
<path d="M2661 4849 c-1 -28 26 -59 51 -59 22 0 48 33 47 61 -1 22 -2 21 -8
-5 -3 -16 -14 -34 -23 -40 -25 -15 -51 3 -59 40 -7 28 -7 28 -8 3z"/>
<path d="M3490 4865 c0 -5 5 -17 10 -25 5 -8 10 -10 10 -5 0 6 -5 17 -10 25
-5 8 -10 11 -10 5z"/>
<path d="M4130 4861 c0 -5 -10 -12 -22 -14 -20 -4 -19 -4 5 -6 18 -1 27 4 27
14 0 8 -2 15 -5 15 -3 0 -5 -4 -5 -9z"/>
<path d="M945 4830 c-4 -11 -11 -17 -17 -14 -7 5 -8 2 -3 -6 6 -10 11 -9 22 5
13 19 17 35 9 35 -3 0 -8 -9 -11 -20z"/>
<path d="M1882 4820 c0 -19 2 -27 5 -17 2 9 2 25 0 35 -3 9 -5 1 -5 -18z"/>
<path d="M2351 4838 c-2 -27 10 -48 27 -48 14 0 14 1 0 13 -9 6 -18 21 -21 32
-3 15 -5 16 -6 3z"/>
<path d="M3161 4834 c0 -11 3 -14 6 -6 3 7 2 16 -1 19 -3 4 -6 -2 -5 -13z"/>
<path d="M12117 4830 c7 -27 28 -43 50 -37 14 4 13 5 -5 6 -14 1 -26 10 -32
26 -11 30 -20 33 -13 5z"/>
<path d="M12198 4827 c-3 -19 -2 -25 4 -19 6 6 8 18 6 28 -3 14 -5 12 -10 -9z"/>
<path d="M12736 4834 c-3 -9 -2 -23 2 -31 7 -11 9 -6 10 16 1 34 -3 39 -12 15z"/>
<path d="M14382 4820 c0 -19 2 -27 5 -17 2 9 2 25 0 35 -3 9 -5 1 -5 -18z"/>
<path d="M2462 4820 c-7 -11 -12 -28 -12 -37 1 -10 7 -3 16 16 16 38 14 50 -4
21z"/>
<path d="M3947 4821 c-4 -17 -3 -21 5 -13 5 5 8 16 6 23 -3 8 -7 3 -11 -10z"/>
<path d="M12545 4828 c9 -24 -21 -35 -49 -18 -19 12 -20 12 -7 -3 17 -21 45
-22 61 -2 10 13 11 18 1 28 -10 9 -11 8 -6 -5z"/>
<path d="M12653 4820 c8 -14 25 -26 38 -27 l24 -3 -24 10 c-13 6 -31 18 -39
28 -12 14 -12 13 1 -8z"/>
<path d="M15466 4825 c-3 -9 -16 -20 -28 -25 -16 -6 -18 -9 -6 -9 18 -1 48 24
48 40 0 14 -7 11 -14 -6z"/>
<path d="M2200 4823 c0 -15 18 -35 23 -27 3 5 -1 15 -9 22 -8 7 -14 9 -14 5z"/>
<path d="M2590 4821 c0 -10 29 -36 34 -30 1 2 -6 12 -16 22 -10 9 -18 13 -18
8z"/>
<path d="M3530 4821 c0 -7 -4 -9 -10 -6 -5 3 -10 2 -10 -4 0 -5 4 -12 9 -15
10 -6 25 24 16 32 -3 3 -5 0 -5 -7z"/>
<path d="M3791 4814 c0 -11 3 -14 6 -6 3 7 2 16 -1 19 -3 4 -6 -2 -5 -13z"/>
<path d="M12360 4824 c0 -18 27 -36 47 -31 14 4 14 5 -4 6 -12 0 -27 9 -32 19
-6 9 -11 12 -11 6z"/>
<path d="M13461 4814 c0 -11 3 -14 6 -6 3 7 2 16 -1 19 -3 4 -6 -2 -5 -13z"/>
<path d="M13952 4810 c0 -14 2 -19 5 -12 2 6 2 18 0 25 -3 6 -5 1 -5 -13z"/>
<path d="M14760 4821 c0 -6 4 -13 10 -16 6 -3 7 1 4 9 -7 18 -14 21 -14 7z"/>
<path d="M15763 4815 c-7 -8 -9 -16 -4 -19 5 -3 12 1 15 10 8 22 4 25 -11 9z"/>
<path d="M1999 4803 c-13 -16 -12 -17 4 -4 16 13 21 21 13 21 -2 0 -10 -8 -17
-17z"/>
<path d="M3371 4804 c0 -11 3 -14 6 -6 3 7 2 16 -1 19 -3 4 -6 -2 -5 -13z"/>
<path d="M3715 4805 c-25 -12 -26 -14 -9 -15 12 0 27 7 34 15 15 18 14 18 -25
0z"/>
<path d="M4110 4805 c-11 -13 -10 -14 4 -9 9 3 16 10 16 15 0 13 -6 11 -20 -6z"/>
<path d="M12259 4807 c7 -10 21 -17 31 -17 10 0 24 7 31 17 13 15 12 15 -8 2
-20 -12 -26 -12 -45 0 -21 13 -22 13 -9 -2z"/>
<path d="M13730 4780 c0 -22 2 -40 4 -40 2 0 6 18 8 40 2 22 0 40 -4 40 -5 0
-8 -18 -8 -40z"/>
<path d="M14009 4808 c14 -19 46 -24 55 -9 4 5 -3 7 -14 4 -11 -3 -28 1 -38 8
-15 13 -16 12 -3 -3z"/>
<path d="M14120 4811 c0 -10 19 -25 25 -20 1 2 -3 10 -11 17 -8 7 -14 8 -14 3z"/>
<path d="M15130 4811 c0 -10 19 -25 25 -20 1 2 -3 10 -11 17 -8 7 -14 8 -14 3z"/>
<path d="M15902 4804 c8 -9 23 -14 33 -12 12 2 7 7 -16 15 -30 12 -32 11 -17
-3z"/>
<path d="M1647 4798 c2 -5 13 -8 23 -8 10 0 21 3 23 8 3 4 -8 7 -23 7 -15 0
-26 -3 -23 -7z"/>
<path d="M1950 4800 c8 -5 20 -10 25 -10 6 0 3 5 -5 10 -8 5 -19 10 -25 10 -5
0 -3 -5 5 -10z"/>
<path d="M2295 4800 c3 -5 8 -10 11 -10 2 0 4 5 4 10 0 6 -5 10 -11 10 -5 0
-7 -4 -4 -10z"/>
<path d="M4317 4799 c7 -7 15 -10 18 -7 3 3 -2 9 -12 12 -14 6 -15 5 -6 -5z"/>
<path d="M13255 4800 c3 -5 8 -10 11 -10 2 0 4 5 4 10 0 6 -5 10 -11 10 -5 0
-7 -4 -4 -10z"/>
<path d="M3908 4793 c7 -3 16 -2 19 1 4 3 -2 6 -13 5 -11 0 -14 -3 -6 -6z"/>
<path d="M14242 4770 c0 -19 2 -27 5 -17 2 9 2 25 0 35 -3 9 -5 1 -5 -18z"/>
<path d="M15382 4775 c0 -16 2 -22 5 -12 2 9 2 23 0 30 -3 6 -5 -1 -5 -18z"/>
<path d="M3506 4765 c-9 -26 -7 -32 5 -12 6 10 9 21 6 23 -2 3 -7 -2 -11 -11z"/>
<path d="M14570 4750 c-13 -8 -12 -10 3 -10 9 0 17 5 17 10 0 12 -1 12 -20 0z"/>
<path d="M1299 4548 c-2 -70 0 -110 5 -116 3 -3 6 29 6 71 0 43 -2 77 -5 77
-3 0 -5 -15 -6 -32z"/>
<path d="M1351 4504 c0 -43 3 -73 6 -66 2 6 10 9 16 5 9 -5 9 -3 0 8 -6 8 -11
38 -12 68 0 29 -2 56 -5 59 -3 3 -6 -30 -5 -74z"/>
<path d="M1489 4573 c-5 -41 -3 -143 3 -143 4 0 8 34 8 75 0 41 -2 75 -5 75
-3 0 -5 -3 -6 -7z"/>
<path d="M1792 4533 c-2 -45 1 -53 16 -53 11 0 13 3 5 8 -6 4 -13 28 -16 52
l-4 45 -1 -52z"/>
<path d="M12114 4505 c1 -41 4 -75 9 -75 7 0 11 16 8 34 -1 4 -2 33 -2 62 -1
30 -4 54 -8 54 -5 0 -7 -34 -7 -75z"/>
<path d="M13053 4510 c0 -41 2 -58 4 -37 2 20 2 54 0 75 -2 20 -4 3 -4 -38z"/>
<path d="M14349 4555 c-9 -39 5 -120 21 -121 9 0 10 1 3 3 -8 3 -13 22 -13 48
0 33 4 45 18 48 15 4 15 5 0 6 -9 0 -18 9 -20 19 -4 15 -5 15 -9 -3z"/>
<path d="M12452 4544 c-7 -8 -8 -14 -2 -14 5 0 10 -20 10 -45 0 -25 2 -45 4
-45 2 0 13 -3 23 -6 17 -5 17 -5 1 6 -12 7 -18 24 -18 50 0 31 4 40 18 41 13
0 14 2 2 6 -8 3 -17 9 -20 13 -3 4 -11 2 -18 -6z"/>
<path d="M870 4485 c0 -32 2 -56 4 -54 8 7 10 98 3 105 -4 4 -7 -19 -7 -51z"/>
<path d="M952 4528 c-7 -7 -12 -17 -12 -22 0 -6 5 -3 11 7 20 35 79 12 79 -32
0 -22 -33 -42 -59 -36 -20 5 -23 4 -14 -6 17 -17 62 -2 75 26 22 48 -43 100
-80 63z"/>
<path d="M1082 4528 c-29 -29 -1 -98 39 -98 8 0 3 6 -11 13 -17 9 -26 22 -28
44 -3 29 0 33 30 42 29 8 30 9 8 10 -15 1 -31 -4 -38 -11z"/>
<path d="M1222 4528 c-7 -7 -12 -16 -12 -22 0 -5 6 -3 13 6 6 9 21 18 32 21
20 5 20 5 0 6 -12 0 -26 -4 -33 -11z"/>
<path d="M1410 4527 c18 -9 25 -21 25 -42 0 -21 -7 -33 -25 -42 -14 -7 -19
-13 -12 -13 32 0 52 21 52 55 0 34 -20 55 -52 55 -7 0 -2 -6 12 -13z"/>
<path d="M1549 4523 c-13 -16 -12 -17 3 -4 10 7 29 11 43 9 13 -3 22 -1 19 3
-9 15 -51 10 -65 -8z"/>
<path d="M1676 4524 c-21 -21 -20 -57 2 -77 24 -22 46 -22 63 0 13 15 12 15
-9 2 -30 -19 -57 -2 -57 36 0 36 27 55 55 37 11 -7 20 -8 20 -3 0 23 -53 27
-74 5z"/>
<path d="M1834 4518 l-19 -23 23 19 c21 18 27 26 19 26 -2 0 -12 -10 -23 -22z"/>
<path d="M1900 4525 c-10 -13 -11 -18 -1 -28 10 -9 11 -8 6 5 -9 24 21 35 49
18 19 -12 20 -12 7 3 -17 21 -45 22 -61 2z"/>
<path d="M12167 4533 c49 -10 57 -68 13 -90 -16 -8 -19 -13 -9 -13 22 0 49 32
49 58 0 27 -26 52 -53 51 l-22 -2 22 -4z"/>
<path d="M12290 4533 c28 -5 50 -21 50 -34 0 -14 -78 -11 -83 4 -3 7 -6 5 -6
-5 -1 -15 7 -18 43 -18 25 0 48 5 51 11 11 17 -26 49 -54 48 l-26 -2 25 -4z"/>
<path d="M12383 4533 c9 -2 23 -2 30 0 6 3 -1 5 -18 5 -16 0 -22 -2 -12 -5z"/>
<path d="M12537 4522 c-20 -21 -21 -41 -6 -62 9 -13 10 -12 5 3 -5 14 1 17 39
17 37 0 45 3 45 18 0 41 -54 57 -83 24z m57 2 c33 -13 17 -34 -24 -34 -41 0
-49 7 -28 28 13 13 28 15 52 6z"/>
<path d="M12655 4496 c0 -24 3 -48 7 -52 4 -4 7 8 7 27 -1 19 0 40 2 48 2 7 0
15 -6 17 -6 2 -10 -15 -10 -40z"/>
<path d="M12796 4524 c-24 -24 -20 -61 9 -80 22 -14 30 -15 50 -4 20 11 25 21
23 49 l-1 36 -4 -32 c-6 -43 -26 -59 -58 -45 -43 20 -31 72 20 85 19 4 18 5
-2 6 -12 0 -29 -6 -37 -15z"/>
<path d="M12965 4533 c23 -6 45 -22 45 -34 0 -4 -17 -10 -37 -12 l-38 -4 43
-1 c29 -1 42 2 42 11 0 20 -33 47 -56 46 -18 -1 -18 -2 1 -6z"/>
<path d="M13103 4490 c0 -30 2 -43 4 -27 2 15 2 39 0 55 -2 15 -4 2 -4 -28z"/>
<path d="M13141 4535 c0 -5 6 -21 14 -35 8 -14 14 -20 14 -15 0 6 -6 21 -14
35 -8 14 -14 21 -14 15z"/>
<path d="M13221 4533 c-1 -6 -4 -20 -7 -30 -5 -17 -5 -17 6 0 6 10 9 23 6 30
-3 9 -5 9 -5 0z"/>
<path d="M13276 4524 c-21 -21 -20 -57 2 -77 24 -22 46 -22 63 0 13 15 12 15
-9 2 -30 -19 -57 -2 -57 36 0 36 27 55 55 38 16 -11 18 -10 14 2 -8 20 -48 19
-68 -1z"/>
<path d="M13390 4485 c0 -32 2 -56 4 -54 8 7 10 98 3 105 -4 4 -7 -19 -7 -51z"/>
<path d="M13461 4539 c-1 -3 10 -32 23 -63 17 -44 25 -54 30 -41 3 10 4 20 1
23 -3 3 -5 1 -6 -4 0 -5 -11 14 -24 41 -13 28 -24 47 -24 44z"/>
<path d="M13650 4530 c-11 -7 -5 -8 20 -4 43 8 51 14 19 14 -13 0 -31 -5 -39
-10z"/>
<path d="M13770 4536 c0 -2 13 -6 29 -8 17 -2 28 -1 25 4 -5 8 -54 12 -54 4z"/>
<path d="M13873 4533 c9 -2 23 -2 30 0 6 3 -1 5 -18 5 -16 0 -22 -2 -12 -5z"/>
<path d="M13943 4485 c0 -33 2 -45 4 -27 2 18 2 45 0 60 -2 15 -4 0 -4 -33z"/>
<path d="M13991 4490 l2 -55 7 45 c4 25 4 49 -1 55 -5 5 -8 -13 -8 -45z"/>
<path d="M14038 4533 c13 -3 26 -11 29 -19 3 -8 10 -14 16 -14 5 0 2 9 -8 20
-10 11 -28 19 -39 19 -19 -2 -19 -2 2 -6z"/>
<path d="M14130 4527 c14 -8 27 -12 30 -10 7 6 -23 23 -40 23 -8 0 -4 -6 10
-13z"/>
<path d="M14210 4521 c-5 -11 -10 -28 -10 -39 0 -22 30 -52 51 -52 8 0 3 6
-11 13 -44 22 -36 80 13 90 18 4 17 5 -5 6 -18 1 -31 -6 -38 -18z"/>
<path d="M14288 4528 c-2 -7 -1 -33 3 -58 l6 -45 1 58 c2 55 -2 71 -10 45z"/>
<path d="M14427 4522 c-29 -32 -21 -42 33 -42 28 0 50 3 50 8 0 4 -21 5 -46 3
-35 -2 -45 0 -42 10 8 24 36 35 58 21 11 -7 20 -8 20 -3 0 10 -24 21 -44 21
-7 0 -20 -8 -29 -18z"/>
<path d="M14546 4524 c-8 -20 11 -44 33 -43 10 0 8 4 -7 10 -30 12 -23 34 11
34 14 -1 23 3 21 7 -9 14 -52 8 -58 -8z"/>
<path d="M1158 4495 c2 -14 -2 -33 -9 -42 -8 -9 -9 -14 -2 -10 6 4 14 1 16 -5
3 -7 6 8 6 35 1 26 -3 47 -8 47 -4 0 -6 -11 -3 -25z"/>
<path d="M12922 4490 c0 -19 2 -27 5 -17 2 9 2 25 0 35 -3 9 -5 1 -5 -18z"/>
<path d="M13715 4511 c4 -8 2 -17 -6 -22 -9 -6 -10 -9 -2 -9 19 0 27 21 13 33
-10 9 -11 9 -5 -2z"/>
<path d="M13760 4511 c0 -6 18 -19 41 -30 28 -14 37 -15 29 -5 -7 7 -18 14
-26 14 -7 0 -20 7 -28 16 -9 8 -16 11 -16 5z"/>
<path d="M1619 4486 c-8 -57 -65 -61 -80 -5 -6 21 -7 22 -8 3 -1 -23 28 -54
51 -54 23 0 50 36 46 62 -4 21 -5 20 -9 -6z"/>
<path d="M13526 4495 c-9 -26 -7 -32 5 -12 6 10 9 21 6 23 -2 3 -7 -2 -11 -11z"/>
<path d="M13630 4489 c0 -48 54 -76 81 -42 13 15 12 15 -9 2 -16 -10 -27 -11
-39 -3 -28 18 -27 34 4 35 27 2 27 2 3 6 -14 3 -28 10 -32 17 -5 6 -8 0 -8
-15z"/>
<path d="M13315 4490 l-40 -7 43 -2 c23 0 42 4 42 9 0 6 -1 9 -2 9 -2 -1 -21
-5 -43 -9z"/>
<path d="M1200 4482 c0 -18 38 -52 58 -51 13 0 13 2 -4 9 -12 5 -29 19 -38 32
-9 12 -16 17 -16 10z"/>
<path d="M1938 4480 c12 -5 22 -14 22 -20 0 -18 -32 -24 -54 -10 -19 12 -20
12 -7 -3 17 -21 45 -22 61 -2 15 18 -3 45 -29 44 -11 0 -9 -3 7 -9z"/>
<path d="M1792 4450 c0 -14 2 -19 5 -12 2 6 2 18 0 25 -3 6 -5 1 -5 -13z"/>
<path d="M1835 4450 c21 -24 26 -25 19 -6 -3 8 -13 17 -22 21 -13 5 -13 2 3
-15z"/>
<path d="M13170 4463 c0 -15 19 -37 26 -31 3 4 -1 14 -10 23 -9 9 -16 13 -16
8z"/>
<path d="M14424 4453 c23 -27 49 -29 67 -5 11 14 11 15 -1 5 -19 -18 -40 -16
-64 5 -21 17 -21 17 -2 -5z"/>
<path d="M12324 4449 c-3 -6 -17 -9 -30 -6 -13 2 -21 0 -18 -4 8 -14 40 -10
54 6 7 8 10 15 7 15 -3 0 -9 -5 -13 -11z"/>
<path d="M12390 4451 c0 -10 19 -25 25 -20 1 2 -3 10 -11 17 -8 7 -14 8 -14 3z"/>
<path d="M12595 4450 c-4 -7 -16 -10 -26 -7 -11 3 -17 1 -13 -4 3 -5 11 -9 17
-9 18 0 42 18 35 25 -3 4 -9 1 -13 -5z"/>
<path d="M12994 4449 c-3 -6 -17 -9 -30 -6 -13 2 -21 0 -18 -4 8 -14 40 -10
54 6 7 8 10 15 7 15 -3 0 -9 -5 -13 -11z"/>
<path d="M13769 4448 c14 -19 46 -24 55 -9 4 5 -3 7 -14 4 -11 -3 -28 1 -38 8
-15 13 -16 12 -3 -3z"/>
<path d="M13880 4445 c7 -8 17 -15 22 -15 5 0 3 7 -6 15 -8 8 -18 15 -22 15
-3 0 -1 -7 6 -15z"/>
<path d="M14549 4448 c14 -19 46 -24 55 -9 4 5 -3 7 -14 4 -11 -3 -28 1 -38 8
-15 13 -16 12 -3 -3z"/>
<path d="M4760 3760 c-99 -14 -200 -93 -243 -189 -28 -63 -34 -164 -12 -221 9
-25 19 -53 22 -63 4 -14 -25 -49 -117 -142 -138 -138 -132 -121 -61 -198 l35
-37 128 127 127 127 38 -19 c61 -29 185 -32 255 -5 69 25 137 89 175 164 36
69 39 196 7 267 -61 132 -208 210 -354 189z m176 -69 c134 -63 193 -237 125
-370 -51 -100 -137 -153 -246 -153 -144 0 -262 102 -281 245 -8 56 25 169 60
209 86 96 225 125 342 69z"/>
<path d="M4794 3449 c-9 -15 12 -33 30 -26 9 4 16 13 16 22 0 17 -35 21 -46 4z"/>
<path d="M15530 3495 l0 -275 430 0 430 0 0 275 0 275 -430 0 -430 0 0 -275z
m345 156 c118 -54 142 -196 49 -283 -61 -56 -136 -64 -205 -19 -53 33 -79 81
-80 143 -1 56 11 86 52 126 54 52 117 64 184 33z"/>
<path d="M15755 3545 c-69 -68 29 -169 104 -107 31 25 32 89 2 114 -33 26 -77
23 -106 -7z"/>
<path d="M6500 3370 c0 -55 0 -103 -1 -107 0 -5 7 -9 15 -11 13 -3 16 6 16 42
0 25 4 46 9 46 5 0 26 -20 47 -45 25 -32 44 -45 61 -45 24 0 24 2 -22 55 l-47
56 34 42 c51 62 53 67 26 67 -15 -1 -34 -15 -56 -45 -36 -49 -54 -57 -52 -22
4 47 0 67 -15 67 -12 0 -15 -18 -15 -100z"/>
<path d="M6725 3405 c-19 -18 -25 -35 -25 -65 0 -69 57 -109 113 -79 16 9 22
9 25 0 2 -6 12 -11 22 -11 17 0 19 9 18 85 0 76 -2 85 -19 85 -11 0 -19 -5
-19 -11 0 -5 -10 -3 -22 5 -32 23 -65 20 -93 -9z m101 -40 c32 -49 -19 -101
-65 -68 -23 16 -28 62 -9 81 20 20 56 14 74 -13z"/>
<path d="M6982 3414 c-12 -8 -22 -10 -22 -5 0 6 -9 11 -20 11 -18 0 -20 -7
-20 -85 0 -78 2 -85 20 -85 17 0 20 7 20 53 0 55 12 77 42 77 13 0 18 8 18 25
0 29 -7 31 -38 9z"/>
<path d="M7120 3421 c-8 -6 -27 -7 -42 -4 l-28 6 0 -87 c0 -79 2 -86 20 -86
17 0 20 7 20 51 0 61 13 89 43 89 36 0 47 -20 47 -83 0 -50 2 -58 18 -55 13 2
18 17 22 68 5 63 6 65 34 68 37 5 46 -10 46 -80 0 -51 2 -58 20 -58 18 0 20 7
20 69 0 63 -2 71 -26 90 -32 25 -52 26 -82 5 -20 -14 -24 -14 -44 0 -25 18
-46 20 -68 7z"/>
<path d="M7423 3420 c-49 -20 -60 -104 -18 -145 26 -27 54 -31 88 -14 16 9 22
9 25 0 2 -6 12 -11 23 -11 17 0 19 8 19 85 0 78 -2 85 -20 85 -11 0 -20 -5
-20 -11 0 -5 -10 -3 -22 5 -25 18 -42 19 -75 6z m83 -55 c31 -48 -15 -101 -62
-70 -26 17 -33 62 -12 83 20 20 56 14 74 -13z"/>
<path d="M7013 2775 c0 -44 2 -61 4 -37 2 23 2 59 0 80 -2 20 -4 1 -4 -43z"/>
<path d="M6492 2768 c0 -40 3 -58 5 -40 5 36 17 40 46 15 19 -17 20 -17 8 5
-6 12 -21 22 -31 22 -31 0 -28 57 3 63 19 4 18 4 -5 6 l-28 1 2 -72z"/>
<path d="M6560 2819 c9 -15 8 -24 -1 -35 -7 -8 -7 -14 -1 -14 16 0 23 30 12
51 -6 10 -13 19 -16 19 -2 0 0 -9 6 -21z"/>
<path d="M7871 2824 c0 -11 3 -14 6 -6 3 7 2 16 -1 19 -3 4 -6 -2 -5 -13z"/>
<path d="M8948 2824 c-7 -40 7 -119 22 -120 9 -1 10 1 2 3 -9 3 -12 23 -11 64
2 58 -6 89 -13 53z"/>
<path d="M9153 2825 c0 -8 4 -15 9 -15 4 0 8 7 8 15 0 8 -4 15 -8 15 -5 0 -9
-7 -9 -15z"/>
<path d="M9471 2828 c0 -10 -7 -18 -13 -18 -10 0 -10 -2 -1 -8 6 -4 13 -27 15
-52 2 -31 8 -45 18 -46 9 0 10 1 3 3 -8 3 -13 22 -13 48 0 33 4 45 18 48 15 4
15 5 0 6 -9 0 -19 9 -21 19 -4 16 -5 16 -6 0z"/>
<path d="M9599 2825 c-9 -39 5 -120 21 -121 9 0 10 1 3 3 -8 3 -13 22 -13 48
0 33 4 45 18 48 15 4 15 5 0 6 -9 0 -18 9 -20 19 -4 15 -5 15 -9 -3z"/>
<path d="M8185 2810 c-8 -13 8 -18 29 -10 19 6 19 7 -2 12 -12 4 -24 2 -27 -2z"/>
<path d="M6627 2792 c-22 -24 -21 -55 1 -75 24 -22 46 -22 63 0 13 15 12 15
-9 2 -16 -10 -27 -11 -39 -3 -34 21 -26 34 21 34 50 0 60 15 28 43 -24 22 -45
21 -65 -1z m61 -4 c21 -21 13 -28 -28 -28 -22 0 -40 4 -40 8 0 14 23 32 40 32
9 0 21 -5 28 -12z"/>
<path d="M6744 2785 c-9 -14 -14 -28 -11 -32 4 -3 11 6 16 21 18 44 81 27 81
-23 0 -14 -29 -41 -45 -41 -7 0 -21 7 -29 16 -9 8 -16 11 -16 5 0 -22 40 -33
71 -20 27 11 30 16 28 53 -2 40 -4 41 -40 44 -32 2 -41 -2 -55 -23z"/>
<path d="M6882 2770 c-2 -48 11 -71 38 -69 10 0 9 3 -5 8 -15 6 -22 20 -26 57
l-6 49 -1 -45z"/>
<path d="M6963 2755 c0 -33 2 -45 4 -27 2 18 2 45 0 60 -2 15 -4 0 -4 -33z"/>
<path d="M7064 2785 c-9 -14 -14 -28 -11 -32 4 -3 11 6 16 20 6 14 20 27 33
30 23 4 23 4 1 6 -14 0 -29 -9 -39 -24z"/>
<path d="M7203 2750 c0 -49 0 -50 4 -11 2 25 11 50 19 56 13 9 13 11 -4 11
-16 0 -19 -8 -19 -56z"/>
<path d="M7273 2755 c0 -33 2 -45 4 -27 2 18 2 45 0 60 -2 15 -4 0 -4 -33z"/>
<path d="M7507 2792 c-21 -23 -22 -56 -1 -76 20 -21 48 -20 65 1 13 15 12 15
-9 2 -16 -10 -27 -11 -39 -3 -34 21 -26 34 21 34 50 0 60 15 28 43 -24 22 -45
21 -65 -1z m61 -4 c21 -21 13 -28 -28 -28 -22 0 -40 4 -40 8 0 14 23 32 40 32
9 0 21 -5 28 -12z"/>
<path d="M7691 2794 c0 -11 3 -14 6 -6 3 7 2 16 -1 19 -3 4 -6 -2 -5 -13z"/>
<path d="M7743 2795 c-28 -31 -2 -95 38 -95 8 0 3 6 -11 13 -31 15 -37 52 -14
78 9 10 13 19 8 19 -5 -1 -15 -7 -21 -15z"/>
<path d="M7793 2799 c10 -6 22 -20 27 -32 7 -19 9 -17 9 13 1 23 -2 30 -8 21
-6 -9 -11 -10 -15 -2 -4 6 -13 11 -19 11 -7 0 -4 -5 6 -11z"/>
<path d="M8060 2791 c-5 -11 -10 -28 -10 -39 0 -22 30 -52 51 -52 8 0 3 6 -11
13 -31 15 -37 52 -14 78 9 10 12 19 6 19 -6 0 -16 -9 -22 -19z"/>
<path d="M8118 2794 c17 -12 22 -24 20 -49 -1 -19 1 -37 5 -41 4 -4 7 19 7 52
0 37 -4 54 -9 45 -6 -9 -11 -10 -15 -2 -4 6 -12 11 -19 11 -6 0 -1 -7 11 -16z"/>
<path d="M8276 2794 c-32 -31 -10 -94 33 -94 10 0 25 7 32 17 13 15 12 15 -9
2 -16 -10 -27 -11 -39 -3 -26 16 -27 32 -1 37 l23 4 -23 2 c-26 1 -25 19 1 35
21 13 53 -4 51 -28 -1 -9 2 -16 7 -16 15 0 10 26 -9 43 -23 21 -46 22 -66 1z"/>
<path d="M8397 2803 c-16 -16 -6 -43 19 -49 14 -4 29 -16 34 -28 l9 -21 0 22
c1 15 -8 24 -29 32 -16 5 -30 17 -30 25 0 19 31 21 48 4 8 -8 12 -8 12 -1 0
18 -49 31 -63 16z"/>
<path d="M8560 2791 c-22 -42 -1 -91 38 -91 12 0 9 4 -8 13 -30 15 -35 64 -7
81 37 24 74 -35 45 -72 -12 -15 -11 -16 5 -3 21 17 22 54 1 75 -21 22 -61 20
-74 -3z"/>
<path d="M8813 2753 l-1 -58 8 50 c4 28 4 53 0 58 -3 4 -7 -18 -7 -50z"/>
<path d="M8840 2799 c0 -5 5 -7 10 -4 6 3 10 8 10 11 0 2 -4 4 -10 4 -5 0 -10
-5 -10 -11z"/>
<path d="M9026 2788 c-9 -12 -16 -28 -16 -35 0 -19 37 -53 58 -52 11 0 7 4
-10 10 -48 18 -45 82 4 92 l23 4 -22 2 c-12 0 -29 -9 -37 -21z"/>
<path d="M9109 2803 c-5 -39 -4 -84 2 -95 5 -8 9 11 9 45 0 31 -2 57 -5 57 -3
0 -5 -3 -6 -7z"/>
<path d="M9216 2794 c-21 -21 -20 -57 2 -77 24 -22 46 -22 63 0 13 15 12 15
-9 2 -16 -10 -27 -11 -39 -3 -34 21 -26 34 21 34 33 0 46 4 46 14 0 20 -28 46
-50 46 -10 0 -26 -7 -34 -16z m62 -6 c21 -21 13 -28 -28 -28 -22 0 -40 4 -40
8 0 14 23 32 40 32 9 0 21 -5 28 -12z"/>
<path d="M9333 2782 c0 -23 0 -23 14 -2 16 23 45 26 61 7 6 -7 12 -30 15 -52
l4 -40 1 41 c2 50 -20 75 -65 71 -24 -2 -30 -6 -30 -25z"/>
<path d="M9677 2792 c-22 -24 -21 -55 1 -75 37 -33 82 -9 82 43 0 47 -52 66
-83 32z m61 -1 c18 -11 11 -61 -10 -75 -23 -14 -52 3 -56 33 -6 40 32 64 66
42z"/>
<path d="M9861 2796 c-17 -20 -22 -54 -9 -62 7 -4 8 -2 4 4 -5 9 6 12 38 12
38 0 46 3 46 18 0 38 -55 58 -79 28z m67 -18 c3 -15 -4 -18 -38 -18 -38 0 -40
1 -30 21 14 25 63 23 68 -3z"/>
<path d="M9980 2755 c0 -32 2 -56 4 -54 8 7 10 98 3 105 -4 4 -7 -19 -7 -51z"/>
<path d="M10030 2801 c21 -6 26 -14 31 -56 l6 -50 1 46 c2 49 -11 70 -42 68
-18 -1 -17 -2 4 -8z"/>
<path d="M10116 2801 c-4 -5 3 -7 14 -4 11 3 28 -1 38 -8 15 -13 16 -12 3 4
-14 18 -46 23 -55 8z"/>
<path d="M10346 2794 c-9 -24 -7 -82 3 -88 5 -3 11 17 13 45 3 51 -5 73 -16
43z"/>
<path d="M10430 2795 c-7 -9 -10 -18 -6 -22 3 -3 6 -1 6 6 0 6 10 16 23 21 15
6 17 9 6 9 -9 1 -22 -6 -29 -14z"/>
<path d="M7145 2755 c2 -63 15 -69 15 -7 0 29 -4 52 -8 52 -4 0 -7 -20 -7 -45z"/>
<path d="M7320 2795 c0 -5 5 -17 10 -25 5 -8 10 -10 10 -5 0 6 -5 17 -10 25
-5 8 -10 11 -10 5z"/>
<path d="M7873 2750 c0 -30 2 -43 4 -27 2 15 2 39 0 55 -2 15 -4 2 -4 -28z"/>
<path d="M8761 2784 c0 -11 3 -14 6 -6 3 7 2 16 -1 19 -3 4 -6 -2 -5 -13z"/>
<path d="M9158 2750 c-1 -28 0 -50 5 -50 4 0 7 23 7 50 0 65 -7 65 -12 0z"/>
<path d="M10302 2775 c0 -16 2 -22 5 -12 2 9 2 23 0 30 -3 6 -5 -1 -5 -18z"/>
<path d="M10497 2781 c4 -17 -1 -20 -43 -24 l-49 -3 53 -2 c45 -2 52 0 52 17
0 11 -4 22 -9 25 -5 4 -7 -3 -4 -13z"/>
<path d="M7386 2775 c-9 -26 -7 -32 5 -12 6 10 9 21 6 23 -2 3 -7 -2 -11 -11z"/>
<path d="M7621 2788 c-2 -15 31 -88 40 -88 5 0 9 5 9 10 0 6 -4 10 -9 10 -4 0
-15 17 -24 38 -8 20 -15 34 -16 30z"/>
<path d="M8681 2758 c-1 -30 22 -58 47 -58 12 0 9 4 -8 13 -15 7 -28 25 -31
42 -7 30 -7 30 -8 3z"/>
<path d="M10116 2769 c3 -6 17 -14 30 -19 13 -5 24 -14 24 -20 0 -17 -27 -22
-52 -10 -22 11 -22 10 -4 -4 25 -20 40 -20 56 -1 15 18 8 30 -30 49 -17 8 -28
10 -24 5z"/>
<path d="M7676 2755 c-9 -26 -7 -32 5 -12 6 10 9 21 6 23 -2 3 -7 -2 -11 -11z"/>
<path d="M10210 2760 c0 -24 29 -60 48 -59 14 1 14 2 -1 6 -10 3 -25 19 -32
36 -8 18 -14 25 -15 17z"/>
<path d="M8762 2735 c0 -16 2 -22 5 -12 2 9 2 23 0 30 -3 6 -5 -1 -5 -18z"/>
<path d="M7345 2735 c9 -25 10 -34 2 -65 -4 -14 2 -5 13 19 11 24 18 46 15 49
-3 3 -5 -1 -5 -9 -1 -10 -5 -8 -17 6 l-16 20 8 -20z"/>
<path d="M9332 2725 c0 -16 2 -22 5 -12 2 9 2 23 0 30 -3 6 -5 -1 -5 -18z"/>
<path d="M7060 2731 c0 -14 38 -34 53 -27 7 2 5 5 -5 5 -9 1 -24 8 -32 17 -9
8 -16 11 -16 5z"/>
<path d="M7816 2732 c-2 -4 -1 -14 5 -22 7 -12 9 -10 9 8 0 23 -5 28 -14 14z"/>
<path d="M7925 2727 c7 -17 42 -33 52 -23 4 3 0 6 -7 6 -7 0 -22 8 -32 17 -17
15 -18 15 -13 0z"/>
<path d="M7996 2723 c-6 -14 -5 -15 5 -6 7 7 10 15 7 18 -3 3 -9 -2 -12 -12z"/>
<path d="M10294 2729 c-3 -6 -1 -16 5 -22 8 -8 11 -5 11 11 0 24 -5 28 -16 11z"/>
<path d="M10422 2731 c7 -26 34 -36 60 -23 22 11 22 11 -6 5 -22 -4 -33 -1
-44 13 -8 10 -12 13 -10 5z"/>
<path d="M8200 2721 c0 -10 19 -25 25 -20 1 2 -3 10 -11 17 -8 7 -14 8 -14 3z"/>
<path d="M8390 2720 c0 -9 39 -25 45 -18 2 2 -7 8 -21 15 -13 6 -24 7 -24 3z"/>
<path d="M9914 2719 c-3 -6 -17 -9 -30 -6 -13 2 -21 0 -18 -4 8 -14 38 -11 60
6 10 8 14 15 7 15 -6 0 -15 -5 -19 -11z"/>
<path d="M6825 2688 c-12 -27 -49 -35 -73 -16 -15 12 -16 11 -3 -4 25 -33 91
-13 91 28 0 20 -4 18 -15 -8z"/>
<path d="M6903 2410 c0 -41 2 -58 4 -37 2 20 2 54 0 75 -2 20 -4 3 -4 -38z"/>
<path d="M6999 2465 c-3 -11 -2 -31 2 -45 6 -23 7 -23 8 -3 1 12 9 24 19 26
15 4 15 5 0 6 -9 0 -18 9 -20 19 -3 15 -4 14 -9 -3z"/>
<path d="M6499 2433 c-12 -16 -12 -17 1 -7 8 7 24 14 35 17 19 4 19 5 -1 6
-12 0 -28 -7 -35 -16z"/>
<path d="M6579 2443 c-4 -46 -4 -82 2 -103 5 -16 7 -1 7 43 -1 37 -2 67 -4 67
-2 0 -4 -3 -5 -7z"/>
<path d="M6632 2420 c0 -19 2 -27 5 -17 2 9 2 25 0 35 -3 9 -5 1 -5 -18z"/>
<path d="M6769 2433 c-12 -16 -12 -17 1 -7 8 7 24 14 35 17 19 4 19 5 -1 6
-12 0 -28 -7 -35 -16z"/>
<path d="M6850 2439 c0 -5 -5 -7 -11 -3 -8 5 -8 1 0 -14 12 -23 5 -50 -18 -70
-14 -11 -13 -12 6 -3 16 8 23 8 26 -2 2 -6 4 14 4 46 0 31 -2 57 -4 57 -1 0
-3 -5 -3 -11z"/>
<path d="M6953 2395 c0 -33 2 -45 4 -27 2 18 2 45 0 60 -2 15 -4 0 -4 -33z"/>
<path d="M6708 2400 c-2 -23 0 -46 4 -53 4 -7 8 12 8 41 0 62 -6 68 -12 12z"/>
<path d="M7071 2420 c14 -31 19 -36 19 -24 0 6 -7 19 -16 30 -14 18 -14 18 -3
-6z"/>
<path d="M6751 2400 c-1 -20 27 -60 41 -60 7 0 4 6 -5 13 -9 6 -21 23 -26 37
-5 14 -10 18 -10 10z"/>
<path d="M6630 2375 c0 -18 23 -35 45 -34 18 0 17 1 -5 10 -13 6 -28 15 -32
22 -4 7 -8 8 -8 2z"/>
<path d="M7095 2338 c0 -21 0 -38 1 -38 1 0 6 12 12 28 6 19 6 31 -2 38 -8 8
-11 0 -11 -28z"/>
<path d="M6504 2356 c11 -9 24 -16 30 -16 12 0 7 5 -24 19 -24 11 -24 11 -6
-3z"/>
<path d="M7017 2349 c7 -7 15 -10 18 -7 3 3 -2 9 -12 12 -14 6 -15 5 -6 -5z"/>
<path d="M10283 1072 c-115 -2 -123 -4 -123 -22 0 -15 7 -20 24 -20 23 0 25
-4 28 -52 3 -48 5 -53 26 -51 20 3 22 -1 22 -52 l0 -55 75 0 75 0 0 50 c0 47
2 50 25 50 23 0 25 3 25 50 0 47 2 50 25 50 20 0 25 5 25 25 0 19 -5 25 -22
26 -13 1 -36 2 -53 3 -16 1 -85 0 -152 -2z"/>
</g>
</svg>
