<?xml version="1.0" standalone="no"?>
<!DOCTYPE svg PUBLIC "-//W3C//DTD SVG 20010904//EN"
 "http://www.w3.org/TR/2001/REC-SVG-20010904/DTD/svg10.dtd">
<svg version="1.0" xmlns="http://www.w3.org/2000/svg"
 width="364.000000pt" height="768.000000pt" viewBox="0 0 364.000000 768.000000"
 preserveAspectRatio="xMidYMid meet">

<g transform="translate(0.000000,768.000000) scale(0.100000,-0.100000)"
fill="#000000" stroke="none">
<path d="M382 6713 c1 -49 3 -71 5 -50 4 39 26 50 52 25 10 -11 11 -10 6 5 -4
9 -17 17 -31 17 -21 0 -24 5 -24 39 0 36 3 40 28 44 25 4 25 4 -5 6 l-33 1 2
-87z"/>
<path d="M1093 6720 c0 -47 2 -66 4 -42 2 23 2 61 0 85 -2 23 -4 4 -4 -43z"/>
<path d="M2711 6784 c0 -11 3 -14 6 -6 3 7 2 16 -1 19 -3 4 -6 -2 -5 -13z"/>
<path d="M2251 6778 c0 -10 -7 -18 -13 -18 -10 0 -10 -2 -1 -8 6 -4 13 -28 16
-52 l4 -45 1 47 c2 40 5 47 25 51 22 4 22 4 0 6 -12 0 -24 9 -26 19 -4 16 -5
16 -6 0z"/>
<path d="M472 6750 c0 -14 2 -19 5 -12 2 6 2 18 0 25 -3 6 -5 1 -5 -13z"/>
<path d="M529 6743 c-11 -15 -11 -16 1 -5 23 20 67 15 84 -10 9 -12 16 -18 16
-12 0 19 -36 44 -62 44 -14 0 -32 -8 -39 -17z"/>
<path d="M820 6753 c14 -3 32 -11 42 -20 12 -11 18 -11 24 -2 4 7 3 10 -3 6
-6 -4 -16 0 -23 8 -7 8 -24 14 -39 14 l-26 -2 25 -4z"/>
<path d="M983 6753 c9 -2 23 -2 30 0 6 3 -1 5 -18 5 -16 0 -22 -2 -12 -5z"/>
<path d="M1183 6753 c9 -2 23 -2 30 0 6 3 -1 5 -18 5 -16 0 -22 -2 -12 -5z"/>
<path d="M1433 6753 c9 -2 23 -2 30 0 6 3 -1 5 -18 5 -16 0 -22 -2 -12 -5z"/>
<path d="M1543 6753 c9 -2 25 -2 35 0 9 3 1 5 -18 5 -19 0 -27 -2 -17 -5z"/>
<path d="M1623 6753 c9 -2 25 -2 35 0 9 3 1 5 -18 5 -19 0 -27 -2 -17 -5z"/>
<path d="M1780 6756 c0 -2 13 -6 29 -8 17 -2 28 -1 25 4 -5 8 -54 12 -54 4z"/>
<path d="M1959 6743 c-11 -15 -11 -16 1 -5 29 25 90 9 90 -25 0 -18 -96 -18
-103 0 -3 6 -5 -1 -5 -18 0 -16 2 -24 5 -17 3 7 25 12 59 12 46 0 54 3 54 18
0 45 -74 70 -101 35z"/>
<path d="M2161 6757 c2 -1 13 -9 24 -17 19 -14 19 -14 6 3 -7 9 -18 17 -24 17
-6 0 -8 -1 -6 -3z"/>
<path d="M2443 6753 c9 -2 23 -2 30 0 6 3 -1 5 -18 5 -16 0 -22 -2 -12 -5z"/>
<path d="M2603 6753 c9 -2 23 -2 30 0 6 3 -1 5 -18 5 -16 0 -22 -2 -12 -5z"/>
<path d="M2983 6753 c9 -2 23 -2 30 0 6 3 -1 5 -18 5 -16 0 -22 -2 -12 -5z"/>
<path d="M2763 6695 c0 -33 2 -45 4 -27 2 18 2 45 0 60 -2 15 -4 0 -4 -33z"/>
<path d="M933 6685 c0 -33 2 -45 4 -27 2 18 2 45 0 60 -2 15 -4 0 -4 -33z"/>
<path d="M2713 6680 c0 -30 2 -43 4 -27 2 15 2 39 0 55 -2 15 -4 2 -4 -28z"/>
<path d="M511 6695 c0 -17 3 -25 7 -18 4 6 32 13 62 16 l55 3 -57 2 c-34 1
-58 7 -61 15 -3 6 -6 -1 -6 -18z"/>
<path d="M762 6695 c0 -16 2 -22 5 -12 2 9 2 23 0 30 -3 6 -5 -1 -5 -18z"/>
<path d="M1742 6695 c0 -16 2 -22 5 -12 2 9 2 23 0 30 -3 6 -5 -1 -5 -18z"/>
<path d="M2392 6695 c0 -16 2 -22 5 -12 2 9 2 23 0 30 -3 6 -5 -1 -5 -18z"/>
<path d="M2931 6695 c0 -17 3 -25 7 -18 4 6 32 13 62 16 l55 3 -57 2 c-34 1
-58 7 -61 15 -3 6 -6 -1 -6 -18z"/>
<path d="M3180 6705 c0 -5 5 -17 10 -25 5 -8 10 -10 10 -5 0 6 -5 17 -10 25
-5 8 -10 11 -10 5z"/>
<path d="M1158 6693 c17 -2 47 -2 65 0 17 2 3 4 -33 4 -36 0 -50 -2 -32 -4z"/>
<path d="M1418 6693 c18 -2 45 -2 60 0 15 2 0 4 -33 4 -33 0 -45 -2 -27 -4z"/>
<path d="M2588 6693 c18 -2 45 -2 60 0 15 2 0 4 -33 4 -33 0 -45 -2 -27 -4z"/>
<path d="M2505 6670 c-3 -5 -1 -10 4 -10 6 0 11 5 11 10 0 6 -2 10 -4 10 -3 0
-8 -4 -11 -10z"/>
<path d="M610 6656 c-6 -8 -24 -17 -38 -19 l-27 -4 26 -2 c15 0 34 8 44 19 10
11 16 20 13 20 -3 0 -11 -6 -18 -14z"/>
<path d="M1486 6653 c-6 -14 -5 -15 5 -6 7 7 10 15 7 18 -3 3 -9 -2 -12 -12z"/>
<path d="M2656 6653 c-6 -14 -5 -15 5 -6 7 7 10 15 7 18 -3 3 -9 -2 -12 -12z"/>
<path d="M2949 6648 c8 -11 25 -17 45 -17 l31 2 -30 4 c-16 3 -37 10 -45 16
-13 10 -13 10 -1 -5z"/>
<path d="M3207 6643 c3 -7 6 -13 8 -13 2 0 5 6 8 13 3 8 -1 14 -8 14 -7 0 -11
-6 -8 -14z"/>
<path d="M825 6640 l-30 -8 27 -1 c15 0 30 4 33 9 3 6 5 9 3 9 -2 -1 -16 -5
-33 -9z"/>
<path d="M1419 6637 c5 -5 19 -7 32 -5 20 3 19 5 -9 9 -20 3 -29 2 -23 -4z"/>
<path d="M2005 6640 l-30 -8 27 -1 c15 0 30 4 33 9 3 6 5 9 3 9 -2 -1 -16 -5
-33 -9z"/>
<path d="M983 6633 c9 -2 23 -2 30 0 6 3 -1 5 -18 5 -16 0 -22 -2 -12 -5z"/>
<path d="M1183 6633 c9 -2 23 -2 30 0 6 3 -1 5 -18 5 -16 0 -22 -2 -12 -5z"/>
<path d="M1793 6633 c9 -2 23 -2 30 0 6 3 -1 5 -18 5 -16 0 -22 -2 -12 -5z"/>
<path d="M2278 6633 c7 -3 16 -2 19 1 4 3 -2 6 -13 5 -11 0 -14 -3 -6 -6z"/>
<path d="M2443 6633 c9 -2 23 -2 30 0 6 3 -1 5 -18 5 -16 0 -22 -2 -12 -5z"/>
<path d="M2603 6633 c9 -2 23 -2 30 0 6 3 -1 5 -18 5 -16 0 -22 -2 -12 -5z"/>
<path d="M1370 6422 c0 -26 -3 -28 -30 -24 -39 6 -70 -21 -70 -60 0 -43 30
-66 84 -66 l46 1 0 89 c0 72 -3 88 -15 88 -10 0 -15 -10 -15 -28z m-10 -56 c6
-8 10 -25 8 -38 -2 -18 -9 -23 -33 -23 -24 0 -31 5 -33 23 -4 25 13 52 33 52
7 0 18 -7 25 -14z"/>
<path d="M1500 6361 c0 -74 3 -91 15 -91 8 0 15 5 15 12 0 9 3 9 12 0 19 -19
55 -14 72 10 37 52 5 114 -53 106 -26 -4 -30 -1 -33 21 -2 13 -9 26 -15 29
-10 3 -13 -19 -13 -87z m90 5 c6 -8 10 -25 8 -38 -2 -18 -9 -23 -33 -23 -24 0
-31 5 -33 23 -4 25 13 52 33 52 7 0 18 -7 25 -14z"/>
<path d="M2290 6360 c0 -72 3 -90 14 -90 11 0 16 14 18 46 6 87 68 84 68 -2 0
-24 5 -44 10 -44 6 0 10 24 10 54 0 63 -15 81 -60 72 -28 -5 -30 -3 -30 24 0
20 -5 30 -15 30 -12 0 -15 -17 -15 -90z"/>
<path d="M2768 6393 c-2 -109 -1 -123 12 -123 6 0 10 37 10 90 0 99 -19 128
-22 33z"/>
<path d="M380 6356 c0 -68 3 -86 14 -86 9 0 16 12 18 33 3 27 7 32 33 35 38 5
55 19 55 47 0 31 -22 47 -75 53 l-45 5 0 -87z m85 29 c0 -14 -8 -21 -27 -23
-24 -3 -28 0 -28 23 0 23 4 26 28 23 19 -2 27 -9 27 -23z"/>
<path d="M1857 6434 c-10 -11 3 -24 24 -24 17 0 19 -7 19 -70 0 -56 3 -70 15
-70 12 0 15 14 15 70 0 63 2 70 20 70 11 0 20 7 20 15 0 11 -13 15 -53 15 -30
0 -57 -3 -60 -6z"/>
<path d="M536 6378 c-22 -31 -20 -64 4 -88 41 -41 110 -13 110 44 0 41 -26 66
-68 66 -21 0 -36 -7 -46 -22z m72 -7 c8 -5 12 -21 10 -37 -3 -25 -7 -29 -33
-29 -24 0 -31 5 -33 23 -6 39 25 63 56 43z"/>
<path d="M675 6381 c3 -10 11 -38 18 -62 18 -61 39 -62 59 -2 l15 48 13 -48
c20 -75 46 -55 74 56 5 20 3 27 -8 27 -10 0 -17 -15 -22 -45 -3 -25 -10 -45
-14 -45 -4 0 -11 19 -16 42 -13 62 -39 63 -57 1 l-14 -48 -13 48 c-7 28 -18
47 -27 47 -9 0 -12 -6 -8 -19z"/>
<path d="M896 6384 c-22 -21 -20 -77 2 -97 25 -23 65 -21 87 3 18 19 17 20 -1
20 -11 0 -25 -5 -30 -10 -14 -14 -44 -2 -44 16 0 10 13 14 45 14 38 0 45 3 45
19 0 28 -27 51 -60 51 -16 0 -36 -7 -44 -16z m72 -21 c2 -9 -7 -13 -27 -13
-30 0 -39 9 -24 24 11 10 46 3 51 -11z"/>
<path d="M1030 6334 c0 -50 3 -64 15 -64 11 0 15 12 15 46 0 37 4 47 20 51 33
9 23 29 -15 30 l-35 1 0 -64z"/>
<path d="M1136 6378 c-22 -30 -20 -60 4 -86 24 -25 58 -28 86 -8 25 19 11 32
-19 19 -15 -7 -29 -7 -40 -1 -31 17 -18 28 33 28 42 0 50 3 50 18 0 49 -85 71
-114 30z m74 -13 c11 -13 7 -15 -25 -15 -32 0 -36 2 -25 15 7 8 18 15 25 15 7
0 18 -7 25 -15z"/>
<path d="M1650 6395 c0 -3 11 -32 24 -64 21 -52 22 -61 10 -90 -11 -27 -11
-31 2 -31 14 0 31 32 75 143 18 44 18 48 2 45 -9 -2 -23 -22 -32 -48 l-15 -45
-20 48 c-11 26 -26 47 -33 47 -7 0 -13 -2 -13 -5z"/>
<path d="M2006 6378 c-46 -65 27 -140 90 -94 26 20 10 32 -22 17 -20 -9 -30
-9 -40 0 -25 21 -15 29 36 29 54 0 61 10 34 48 -10 15 -25 22 -49 22 -24 0
-39 -7 -49 -22z m74 -13 c11 -13 7 -15 -23 -15 -28 0 -35 3 -31 15 4 8 14 15
24 15 10 0 23 -7 30 -15z"/>
<path d="M2156 6378 c-46 -65 27 -140 90 -94 25 19 11 32 -19 19 -30 -14 -57
1 -57 31 0 36 25 52 55 36 29 -16 43 -7 25 15 -19 23 -76 19 -94 -7z"/>
<path d="M2450 6333 c0 -48 3 -63 14 -63 11 0 16 14 18 46 6 87 68 84 68 -2 0
-24 5 -44 10 -44 17 0 17 95 -1 116 -6 8 -30 12 -60 12 l-49 -1 0 -64z"/>
<path d="M2616 6378 c-22 -31 -20 -64 4 -88 41 -41 110 -13 110 44 0 41 -26
66 -68 66 -21 0 -36 -7 -46 -22z m72 -7 c8 -5 12 -21 10 -37 -3 -25 -7 -29
-33 -29 -24 0 -31 5 -33 23 -6 39 25 63 56 43z"/>
<path d="M2836 6378 c-22 -31 -20 -64 4 -88 41 -41 110 -13 110 44 0 41 -26
66 -68 66 -21 0 -36 -7 -46 -22z m72 -7 c8 -5 12 -21 10 -37 -3 -25 -7 -29
-33 -29 -24 0 -31 5 -33 23 -6 39 25 63 56 43z"/>
<path d="M2990 6380 c-16 -29 -12 -75 8 -93 22 -20 53 -22 70 -5 9 9 12 7 12
-9 0 -32 -26 -48 -56 -34 -38 17 -49 13 -29 -9 23 -25 76 -26 98 -2 13 14 17
38 17 94 l0 74 -55 2 c-44 1 -57 -2 -65 -18z m80 -14 c6 -8 10 -25 8 -38 -2
-18 -9 -23 -33 -23 -26 0 -30 4 -33 29 -5 41 32 62 58 32z"/>
<path d="M3140 6391 c0 -4 10 -32 22 -60 18 -44 19 -58 10 -87 -9 -30 -8 -35
4 -32 9 2 33 45 54 96 31 73 36 93 23 90 -8 -2 -23 -23 -33 -47 -18 -47 -21
-46 -39 12 -7 20 -19 37 -27 37 -8 0 -14 -4 -14 -9z"/>
<path d="M1150 4310 c0 -5 5 -10 10 -10 6 0 10 5 10 10 0 6 -4 10 -10 10 -5 0
-10 -4 -10 -10z"/>
<path d="M530 4302 c-16 -5 -30 -21 -30 -35 0 -4 16 -17 35 -28 38 -23 37 -44
-1 -35 -13 4 -24 2 -24 -4 0 -18 51 -24 67 -7 20 20 11 45 -21 57 -32 12 -41
29 -20 37 10 4 19 2 22 -5 5 -17 22 -15 22 2 0 15 -27 25 -50 18z"/>
<path d="M619 4254 c-9 -52 5 -74 45 -72 29 1 35 5 38 27 2 15 1 37 -3 51 l-7
25 -1 -27 c-2 -40 -11 -58 -32 -58 -18 0 -22 9 -32 65 -2 14 -5 11 -8 -11z"/>
<path d="M730 4204 c0 -75 13 -99 23 -45 5 24 10 28 27 24 28 -7 50 14 50 47
0 36 -16 48 -62 48 l-38 0 0 -74z m78 28 c4 -30 -26 -42 -44 -17 -10 14 -11
22 -2 32 16 20 42 12 46 -15z"/>
<path d="M862 4268 c-15 -15 -15 -61 0 -76 17 -17 53 -15 69 4 12 15 10 16
-18 10 -18 -4 -34 -3 -38 3 -4 7 7 11 29 11 28 0 36 4 36 18 0 24 -19 42 -45
42 -12 0 -26 -5 -33 -12z m53 -18 c4 -6 -5 -10 -20 -10 -15 0 -24 4 -20 10 3
6 12 10 20 10 8 0 17 -4 20 -10z"/>
<path d="M970 4229 c0 -27 5 -49 10 -49 6 0 10 15 10 34 0 21 6 36 15 40 23 9
18 21 -10 22 -23 2 -25 -1 -25 -47z"/>
<path d="M1048 4233 c10 -27 24 -48 32 -48 8 0 22 21 32 48 13 35 15 48 6 45
-7 -3 -17 -19 -22 -36 -5 -18 -12 -32 -16 -32 -4 0 -11 14 -16 32 -5 17 -15
33 -22 36 -9 3 -7 -10 6 -45z"/>
<path d="M1150 4230 c0 -27 5 -50 10 -50 6 0 10 23 10 50 0 28 -4 50 -10 50
-5 0 -10 -22 -10 -50z"/>
<path d="M1207 4273 c-16 -15 -6 -43 18 -49 14 -3 25 -11 25 -16 0 -6 -11 -7
-26 -4 -19 5 -25 3 -22 -6 3 -7 18 -13 34 -13 22 0 29 5 29 20 0 11 -10 24
-22 30 -32 14 -29 29 4 20 23 -5 25 -4 14 9 -14 16 -42 21 -54 9z"/>
<path d="M1306 4264 c-20 -20 -20 -48 0 -68 23 -23 51 -20 70 9 15 23 15 27 0
50 -19 29 -47 32 -70 9z m58 -19 c8 -23 -4 -45 -25 -45 -11 0 -22 7 -25 15 -9
23 3 45 25 45 10 0 21 -7 25 -15z"/>
<path d="M1410 4229 c0 -27 5 -49 10 -49 6 0 10 15 10 34 0 21 6 36 15 40 23
9 18 21 -10 22 -23 2 -25 -1 -25 -47z"/>
<path d="M858 3953 c7 -3 16 -2 19 1 4 3 -2 6 -13 5 -11 0 -14 -3 -6 -6z"/>
<path d="M2912 3303 c-51 -25 -82 -78 -81 -138 0 -27 4 -59 8 -70 6 -15 -4
-31 -51 -77 -32 -32 -58 -62 -58 -65 0 -4 10 -17 22 -30 l22 -24 62 62 61 61
42 -12 c52 -14 96 -5 139 27 43 32 62 72 62 130 0 63 -26 105 -82 132 -53 25
-101 27 -146 4z m159 -29 c28 -24 49 -74 49 -114 0 -62 -50 -120 -116 -134
-84 -18 -178 79 -159 164 8 35 49 88 79 101 35 15 123 5 147 -17z"/>
<path d="M2975 3160 c4 -6 11 -8 16 -5 14 9 11 15 -7 15 -8 0 -12 -5 -9 -10z"/>
<path d="M323 2490 c-13 -5 -23 -12 -23 -15 0 -3 683 -5 1517 -5 1214 0 1515
3 1505 13 -10 9 -325 12 -1495 14 -872 1 -1491 -2 -1504 -7z"/>
<path d="M1310 2195 c0 -8 5 -15 10 -15 6 0 10 7 10 15 0 8 -4 15 -10 15 -5 0
-10 -7 -10 -15z"/>
<path d="M1360 2135 c0 -37 4 -65 10 -65 6 0 10 28 10 65 0 37 -4 65 -10 65
-6 0 -10 -28 -10 -65z"/>
<path d="M1480 2180 c0 -16 -5 -19 -24 -14 -26 6 -56 -17 -56 -44 0 -31 18
-46 59 -48 l41 -2 0 64 c0 36 -4 64 -10 64 -5 0 -10 -9 -10 -20z m-5 -60 c0
-18 -6 -26 -21 -28 -23 -3 -37 18 -27 44 10 25 48 13 48 -16z"/>
<path d="M513 2183 c13 -4 17 -15 17 -59 0 -30 5 -54 10 -54 6 0 10 24 10 54
0 49 2 55 23 59 12 2 0 4 -28 4 -27 1 -42 -1 -32 -4z"/>
<path d="M1070 2131 c0 -61 0 -61 29 -61 16 0 36 3 45 6 19 7 22 54 4 54 -10
0 -10 3 0 9 8 5 12 17 10 27 -2 14 -13 20 -46 22 l-42 3 0 -60z m68 32 c5 -17
-26 -29 -40 -15 -6 6 -7 15 -3 22 9 14 37 9 43 -7z m0 -56 c3 -12 -3 -17 -21
-17 -24 0 -26 5 -18 38 3 12 36 -6 39 -21z"/>
<path d="M622 2158 c-17 -17 -15 -63 3 -78 8 -7 25 -10 40 -6 35 9 32 27 -4
20 -16 -4 -32 -1 -35 5 -5 7 6 11 33 11 45 0 54 16 25 44 -18 19 -45 21 -62 4z
m53 -18 c4 -6 -5 -10 -19 -10 -14 0 -26 5 -26 10 0 6 9 10 19 10 11 0 23 -4
26 -10z"/>
<path d="M726 2148 c-26 -37 1 -78 50 -76 34 1 34 2 34 48 0 46 0 46 -35 47
-25 1 -39 -5 -49 -19z m62 -26 c4 -28 -24 -40 -45 -19 -14 13 -14 19 -3 32 18
22 44 15 48 -13z"/>
<path d="M840 2118 c0 -26 5 -48 10 -48 6 0 10 11 10 24 0 37 10 56 31 56 15
0 19 -7 19 -40 0 -22 5 -40 10 -40 6 0 10 11 10 24 0 37 10 56 31 56 15 0 19
-7 19 -40 0 -22 5 -40 10 -40 11 0 14 89 3 91 -5 1 -41 2 -80 3 l-73 2 0 -48z"/>
<path d="M1190 2131 c0 -45 13 -58 58 -58 32 0 32 1 32 49 0 56 -17 65 -22 11
-2 -30 -7 -38 -23 -38 -16 0 -21 8 -23 38 -4 49 -22 48 -22 -2z"/>
<path d="M1310 2120 c0 -27 5 -50 10 -50 6 0 10 23 10 50 0 28 -4 50 -10 50
-5 0 -10 -22 -10 -50z"/>
<path d="M1543 2158 c-20 -26 -21 -48 -4 -69 14 -17 24 -20 44 -15 37 9 34 27
-3 20 -19 -4 -30 -2 -30 5 0 6 16 11 35 11 39 0 46 17 19 44 -19 19 -48 21
-61 4z m52 -18 c4 -6 -5 -10 -19 -10 -14 0 -26 5 -26 10 0 6 9 10 19 10 11 0
23 -4 26 -10z"/>
<path d="M1640 2119 c0 -27 5 -49 10 -49 6 0 10 10 10 23 0 13 7 32 15 43 20
26 19 29 -10 30 -23 2 -25 -1 -25 -47z"/>
<path d="M1708 1648 c5 -5 16 -8 23 -6 8 3 3 7 -10 11 -17 4 -21 3 -13 -5z"/>
<path d="M1068 1643 c7 -3 16 -2 19 1 4 3 -2 6 -13 5 -11 0 -14 -3 -6 -6z"/>
<path d="M1998 1643 c7 -3 16 -2 19 1 4 3 -2 6 -13 5 -11 0 -14 -3 -6 -6z"/>
<path d="M2178 1643 c7 -3 16 -2 19 1 4 3 -2 6 -13 5 -11 0 -14 -3 -6 -6z"/>
<path d="M2720 1170 l0 -50 53 0 c28 0 123 -3 210 -7 l157 -6 0 56 0 57 -210
0 -210 0 0 -50z m70 0 c0 -5 -5 -10 -11 -10 -5 0 -7 5 -4 10 3 6 8 10 11 10 2
0 4 -4 4 -10z m50 0 c0 -5 -5 -10 -11 -10 -5 0 -7 5 -4 10 3 6 8 10 11 10 2 0
4 -4 4 -10z m50 0 c0 -5 -4 -10 -10 -10 -5 0 -10 5 -10 10 0 6 5 10 10 10 6 0
10 -4 10 -10z"/>
<path d="M2883 968 c-49 -44 -58 -56 -50 -65 3 -3 27 15 53 39 47 43 47 43 42
15 -4 -19 -1 -30 8 -34 8 -3 14 -12 14 -20 0 -18 -25 -44 -34 -36 -3 4 -6 -1
-6 -11 0 -9 4 -15 8 -12 4 2 14 -9 21 -25 10 -24 19 -29 47 -29 l34 0 0 60 c0
49 3 58 15 54 31 -12 13 15 -39 60 -30 25 -57 46 -60 46 -3 0 -27 -19 -53 -42z"/>
<path d="M509 68 c0 -7 -2 -25 -3 -40 -1 -23 2 -26 27 -26 15 1 26 6 24 12 -2
6 5 23 15 39 23 32 13 35 -19 5 l-23 -21 0 21 c0 23 -19 31 -21 10z"/>
<path d="M631 47 c-13 -13 -15 -47 -2 -47 5 0 11 9 14 20 7 26 44 26 52 0 9
-29 25 -24 25 8 0 25 -3 28 -39 29 -21 1 -43 -3 -50 -10z"/>
<path d="M750 29 c0 -16 5 -29 10 -29 6 0 10 6 10 14 0 8 7 16 15 20 23 9 18
21 -10 22 -21 2 -25 -2 -25 -27z"/>
<path d="M820 28 c0 -32 15 -38 23 -8 7 26 37 26 44 0 7 -26 19 -26 26 0 7 26
37 26 44 0 7 -25 23 -26 23 -1 0 30 -26 46 -55 33 -13 -6 -27 -7 -30 -3 -3 5
-21 9 -40 8 -31 -1 -35 -4 -35 -29z"/>
<path d="M1015 43 c-17 -16 -20 -43 -6 -43 5 0 13 9 16 20 4 11 15 20 27 20
11 0 22 -8 25 -20 8 -30 23 -24 23 8 0 25 -4 28 -35 29 -20 1 -42 -6 -50 -14z"/>
</g>
</svg>
