<?xml version="1.0" standalone="no"?>
<!DOCTYPE svg PUBLIC "-//W3C//DTD SVG 20010904//EN"
 "http://www.w3.org/TR/2001/REC-SVG-20010904/DTD/svg10.dtd">
<svg version="1.0" xmlns="http://www.w3.org/2000/svg"
 width="1886.000000pt" height="891.000000pt" viewBox="0 0 1886.000000 891.000000"
 preserveAspectRatio="xMidYMid meet">

<g transform="translate(0.000000,891.000000) scale(0.100000,-0.100000)"
fill="#000000" stroke="none">
<path d="M9022 8278 c-13 -7 -26 -24 -29 -39 -3 -16 -13 -30 -22 -32 -14 -4
-14 -5 2 -6 15 -1 17 -14 19 -103 l2 -103 5 100 6 100 30 6 30 7 -32 1 c-37 1
-37 0 -23 35 6 16 17 26 30 26 11 0 20 5 20 10 0 12 -8 12 -38 -2z"/>
<path d="M9150 8277 c-16 -8 -26 -23 -28 -40 -2 -17 -9 -27 -20 -27 -14 0 -14
-1 1 -12 13 -10 17 -34 20 -108 l3 -95 2 102 2 102 28 4 27 4 -28 2 c-25 1
-28 5 -25 29 2 19 9 28 26 30 12 2 22 8 22 13 0 11 0 11 -30 -4z"/>
<path d="M7580 8142 c0 -78 3 -142 8 -142 7 0 4 271 -4 279 -2 2 -4 -59 -4
-137z"/>
<path d="M7660 8270 c0 -5 5 -10 10 -10 6 0 10 5 10 10 0 6 -4 10 -10 10 -5 0
-10 -4 -10 -10z"/>
<path d="M8000 8141 c0 -98 3 -140 11 -136 6 4 8 13 5 21 -3 7 -1 16 5 19 5 4
7 11 3 16 -12 20 -6 77 11 102 32 49 120 44 144 -9 16 -35 14 -86 -4 -111 -21
-30 -75 -39 -117 -19 l-33 16 24 -20 c35 -30 86 -26 122 9 24 24 29 38 29 76
0 39 -5 52 -30 77 -27 27 -36 30 -73 25 -25 -3 -48 -14 -59 -26 -9 -12 -18
-21 -21 -21 -2 0 -5 25 -6 57 0 31 -3 59 -6 61 -3 3 -5 -59 -5 -137z"/>
<path d="M8264 8140 c0 -80 2 -112 3 -72 2 39 2 105 0 145 -1 39 -3 7 -3 -73z"/>
<path d="M9230 8270 c0 -5 5 -10 10 -10 6 0 10 5 10 10 0 6 -4 10 -10 10 -5 0
-10 -4 -10 -10z"/>
<path d="M9550 8270 c0 -5 5 -10 10 -10 6 0 10 5 10 10 0 6 -4 10 -10 10 -5 0
-10 -4 -10 -10z"/>
<path d="M10530 8218 c-1 -52 -3 -60 -13 -47 -44 58 -131 48 -162 -18 -49
-102 68 -203 148 -129 l26 24 4 -27 c2 -14 5 38 6 117 0 78 -1 142 -4 142 -3
0 -5 -28 -5 -62z m-29 -47 c60 -61 21 -161 -62 -161 -33 0 -60 20 -75 55 -11
28 -12 41 -1 72 21 66 89 83 138 34z"/>
<path d="M10854 8140 c0 -80 2 -112 3 -72 2 39 2 105 0 145 -1 39 -3 7 -3 -73z"/>
<path d="M10930 8270 c0 -5 5 -10 10 -10 6 0 10 5 10 10 0 6 -4 10 -10 10 -5
0 -10 -4 -10 -10z"/>
<path d="M7132 8133 c1 -76 3 -110 5 -75 4 61 4 62 33 62 26 0 35 -9 67 -60
21 -33 41 -60 45 -60 4 0 -8 26 -27 57 l-34 57 29 17 c35 22 45 52 30 88 -14
35 -47 51 -105 51 l-45 0 2 -137z m123 107 c20 -16 19 -74 -1 -94 -10 -10 -33
-16 -65 -16 l-49 0 0 66 0 67 50 -5 c27 -3 56 -11 65 -18z"/>
<path d="M10121 8238 c0 -16 -8 -28 -18 -31 -17 -4 -17 -5 0 -6 15 -1 17 -12
17 -85 0 -91 12 -117 53 -115 19 0 19 2 -6 11 -33 12 -39 33 -35 118 3 63 4
65 33 71 l30 7 -32 1 c-27 1 -32 5 -36 29 l-4 27 -2 -27z"/>
<path d="M7383 8198 c-22 -11 -53 -63 -53 -91 0 -59 48 -107 108 -107 34 0 82
34 81 58 0 13 -3 12 -11 -4 -11 -24 -48 -44 -81 -44 -32 0 -63 25 -75 60 l-11
30 89 0 c49 0 91 4 94 9 3 5 1 23 -5 40 -18 51 -83 75 -136 49z m101 -19 c15
-12 26 -30 26 -45 0 -23 -2 -24 -80 -24 -66 0 -80 3 -80 16 0 63 81 95 134 53z"/>
<path d="M7781 8194 c-46 -33 -60 -111 -28 -155 31 -42 101 -51 138 -19 l24
21 -32 -16 c-46 -22 -80 -19 -108 10 -30 29 -34 97 -10 132 30 42 108 39 142
-6 7 -9 12 -45 12 -84 -1 -37 2 -71 5 -74 3 -4 5 43 5 103 -1 72 -4 99 -9 79
-4 -16 -8 -24 -9 -18 -1 16 -54 43 -83 43 -13 0 -34 -7 -47 -16z"/>
<path d="M8378 8195 c-60 -33 -59 -149 2 -180 16 -8 42 -15 58 -15 34 0 82 34
81 58 0 13 -3 12 -11 -4 -11 -25 -48 -44 -82 -44 -32 0 -73 34 -78 65 l-5 25
88 0 c48 0 90 3 92 8 2 4 0 22 -5 39 -15 55 -83 78 -140 48z m106 -16 c15 -12
26 -30 26 -45 0 -23 -2 -24 -80 -24 -77 0 -80 1 -80 23 0 57 84 86 134 46z"/>
<path d="M8784 8198 c-42 -20 -61 -96 -37 -145 26 -54 99 -70 147 -32 14 11
26 28 25 37 0 14 -2 14 -6 2 -10 -26 -47 -50 -81 -50 -38 0 -82 37 -82 70 0
19 6 20 90 20 99 0 104 4 75 61 -24 45 -82 61 -131 37z m100 -20 c13 -13 27
-33 31 -45 6 -23 5 -23 -79 -23 -71 0 -86 3 -86 16 0 63 84 96 134 52z"/>
<path d="M9234 8105 c0 -60 1 -84 3 -52 2 32 2 81 0 110 -2 29 -3 3 -3 -58z"/>
<path d="M9348 8195 c-57 -31 -59 -142 -3 -179 37 -24 91 -21 120 9 14 13 25
28 25 34 0 5 -13 -4 -29 -20 -69 -69 -167 -3 -140 94 19 71 89 89 141 37 17
-17 28 -24 24 -15 -3 9 -6 18 -6 21 0 9 -61 34 -82 34 -13 -1 -35 -7 -50 -15z"/>
<path d="M9554 8105 c0 -60 1 -84 3 -52 2 32 2 81 0 110 -2 29 -3 3 -3 -58z"/>
<path d="M9668 8195 c-57 -31 -59 -142 -3 -179 50 -33 146 -4 144 42 0 13 -3
12 -11 -4 -11 -25 -48 -44 -82 -44 -32 0 -73 34 -78 65 l-5 25 88 0 c48 0 90
3 92 8 2 4 0 22 -5 39 -15 55 -83 78 -140 48z m106 -16 c15 -12 26 -30 26 -45
0 -23 -2 -24 -84 -24 l-83 0 5 25 c6 33 47 65 82 65 15 0 39 -9 54 -21z"/>
<path d="M9914 8194 c-18 -15 -18 -15 3 -5 33 16 68 13 94 -8 21 -17 24 -28
25 -96 1 -42 4 -79 8 -82 10 -11 7 124 -4 153 -6 15 -18 33 -28 40 -23 18 -74
17 -98 -2z"/>
<path d="M10648 8195 c-57 -31 -59 -142 -3 -179 50 -33 146 -4 144 42 0 13 -3
12 -11 -4 -11 -25 -48 -44 -82 -44 -33 0 -76 37 -76 66 0 24 2 24 84 24 47 0
87 3 89 8 2 4 0 22 -5 39 -15 55 -83 78 -140 48z m106 -16 c15 -12 26 -30 26
-45 0 -23 -2 -24 -80 -24 -66 0 -80 3 -80 16 0 63 81 95 134 53z"/>
<path d="M10930 8105 c0 -60 2 -106 4 -104 7 7 9 199 2 206 -3 3 -6 -42 -6
-102z"/>
<path d="M10992 8200 c25 -69 83 -200 89 -200 8 0 92 200 86 206 -4 4 -16 -23
-60 -130 -13 -32 -27 -55 -29 -50 -3 5 -20 45 -38 89 -18 44 -37 85 -43 90 -7
7 -8 5 -5 -5z"/>
<path d="M11264 8200 c-34 -13 -54 -50 -54 -98 0 -105 133 -141 181 -49 8 14
1 10 -20 -12 -29 -31 -35 -33 -74 -28 -44 6 -77 35 -77 68 0 17 8 19 90 19
l90 0 0 26 c0 36 -50 84 -87 83 -15 0 -38 -4 -49 -9z m74 -6 c21 -6 52 -49 52
-74 0 -6 -32 -10 -85 -10 -47 0 -85 4 -85 10 0 21 24 59 44 68 25 13 43 14 74
6z"/>
<path d="M11463 8105 c0 -108 0 -109 6 -30 7 92 11 100 54 119 26 12 28 15 11
15 -11 1 -29 -8 -40 -20 l-19 -21 -6 24 c-4 12 -7 -26 -6 -87z"/>
<path d="M11570 8204 c0 -3 18 -50 41 -104 l41 -99 -17 -46 c-10 -25 -16 -48
-13 -50 6 -6 120 285 116 297 -2 5 -19 -32 -37 -81 -19 -50 -37 -91 -42 -91
-4 0 -24 41 -45 90 -33 81 -44 102 -44 84z"/>
<path d="M7662 8103 c-1 -57 1 -103 6 -103 4 0 6 33 4 72 -4 125 -9 137 -10
31z"/>
<path d="M9871 8099 l2 -104 7 76 c4 42 10 81 13 85 3 5 -1 18 -9 29 -12 17
-14 7 -13 -86z"/>
<path d="M8562 7998 c-15 -57 -8 -60 11 -4 9 26 12 46 8 46 -5 0 -13 -19 -19
-42z"/>
<path d="M8710 7665 c0 -42 -2 -45 -19 -35 -37 19 -90 12 -116 -16 -38 -41
-35 -115 4 -155 34 -33 83 -39 113 -12 17 15 18 15 18 0 0 -11 8 -17 25 -17
l25 0 0 140 0 140 -25 0 c-23 0 -25 -4 -25 -45z m-16 -84 c26 -29 18 -82 -15
-100 -24 -13 -29 -13 -53 2 -20 13 -26 26 -26 52 0 59 57 87 94 46z"/>
<path d="M8910 7570 l0 -140 25 0 c16 0 25 6 25 16 0 14 2 14 22 0 72 -51 159
25 138 120 -5 22 -19 47 -31 57 -27 22 -87 22 -111 0 -17 -15 -18 -14 -18 35
0 49 -2 52 -25 52 l-25 0 0 -140z m136 22 c42 -27 33 -107 -12 -118 -37 -9
-74 20 -74 58 0 52 48 86 86 60z"/>
<path d="M10189 7660 c-1 -27 -1 -59 -1 -70 0 -144 2 -160 21 -160 16 0 19 9
23 76 4 78 12 94 54 94 35 0 44 -20 44 -97 0 -71 1 -73 25 -73 25 0 25 1 25
83 0 70 -3 87 -20 105 -22 23 -93 31 -105 12 -14 -23 -25 -7 -25 35 0 38 -3
45 -20 45 -17 0 -20 -7 -21 -50z"/>
<path d="M10940 7569 c0 -140 0 -140 23 -137 21 3 22 6 25 141 l3 137 -26 0
-25 0 0 -141z"/>
<path d="M7130 7566 l0 -136 25 0 c23 0 25 3 25 49 l0 49 50 7 c82 11 115 75
67 131 -20 23 -33 27 -95 32 l-72 5 0 -137z m132 72 c20 -32 2 -57 -45 -65
l-37 -6 0 48 0 48 37 -6 c20 -4 40 -12 45 -19z"/>
<path d="M9480 7680 c0 -16 7 -20 35 -20 l35 0 0 -115 0 -115 25 0 c24 0 24 0
27 113 l3 112 33 3 c24 2 32 8 32 23 0 17 -8 19 -95 19 -88 0 -95 -1 -95 -20z"/>
<path d="M7397 7629 c-24 -14 -47 -62 -47 -100 0 -22 10 -41 35 -66 33 -33 39
-35 82 -30 63 7 93 40 93 103 0 64 -40 104 -102 104 -24 0 -51 -5 -61 -11z
m97 -45 c26 -26 20 -81 -10 -101 -24 -15 -29 -15 -53 -2 -51 29 -33 119 25
119 12 0 30 -7 38 -16z"/>
<path d="M7591 7628 c0 -7 13 -53 28 -103 24 -82 29 -90 53 -93 28 -3 35 10
54 106 4 18 10 32 14 32 4 0 16 -31 25 -70 16 -65 19 -70 44 -70 25 0 28 6 54
98 15 53 28 100 27 105 0 4 -9 7 -19 7 -16 0 -23 -14 -37 -75 -18 -78 -28 -86
-39 -32 -19 91 -27 108 -54 105 -19 -2 -27 -11 -34 -38 -22 -91 -29 -112 -34
-107 -2 3 -13 36 -22 74 -14 56 -21 69 -39 71 -13 2 -22 -2 -21 -10z"/>
<path d="M7946 7609 c-60 -71 -16 -179 72 -179 38 0 92 30 92 51 0 12 -47 12
-55 -1 -9 -14 -58 -13 -73 2 -29 29 -13 38 63 38 l75 0 0 29 c0 17 -11 42 -26
60 -22 27 -32 31 -74 31 -42 0 -52 -4 -74 -31z m112 -21 c26 -26 13 -38 -38
-38 -34 0 -50 4 -50 13 0 21 22 37 50 37 14 0 31 -5 38 -12z"/>
<path d="M8170 7535 l0 -105 25 0 c24 0 25 2 25 68 0 70 10 92 42 92 13 0 18
8 18 25 0 27 -10 31 -41 15 -13 -7 -19 -7 -19 0 0 5 -11 10 -25 10 l-25 0 0
-105z"/>
<path d="M8339 7611 c-21 -22 -29 -39 -29 -66 0 -103 99 -152 172 -85 l33 29
-28 1 c-15 0 -36 -5 -47 -12 -24 -15 -73 0 -78 25 -3 15 6 17 71 17 82 0 89 5
76 55 -13 44 -44 65 -96 65 -36 0 -50 -6 -74 -29z m115 -27 c24 -24 10 -34
-45 -34 -33 0 -49 4 -49 13 0 36 65 51 94 21z"/>
<path d="M9169 7593 c11 -27 29 -70 40 -96 26 -60 26 -68 1 -117 -25 -50 -25
-52 6 -48 23 3 32 19 89 153 49 116 60 151 49 153 -29 7 -40 -6 -63 -72 -13
-36 -26 -66 -30 -66 -4 0 -18 32 -31 70 -22 64 -27 70 -52 70 l-28 0 19 -47z"/>
<path d="M9735 7614 c-25 -27 -29 -41 -26 -99 3 -44 51 -85 100 -85 37 0 91
30 91 51 0 13 -54 11 -67 -2 -16 -16 -54 -7 -71 19 l-14 22 81 0 81 0 0 31 c0
20 -10 40 -29 60 -24 24 -38 29 -76 29 -37 0 -51 -5 -70 -26z m113 -26 c26
-26 13 -38 -38 -38 -34 0 -50 4 -50 13 0 21 22 37 50 37 14 0 31 -5 38 -12z"/>
<path d="M9968 7610 c-28 -28 -30 -35 -26 -82 7 -66 39 -98 99 -98 33 0 47 6
72 33 l32 32 -28 3 c-15 2 -34 -4 -43 -12 -48 -49 -109 29 -74 95 13 23 62 26
80 4 7 -8 23 -15 36 -15 24 0 24 1 10 29 -18 34 -34 41 -88 41 -31 0 -46 -7
-70 -30z"/>
<path d="M10440 7534 c0 -104 0 -105 23 -102 20 3 22 9 25 73 3 79 13 95 53
95 37 0 49 -28 49 -111 0 -56 1 -59 25 -59 24 0 25 3 25 58 0 73 -16 129 -40
142 -24 13 -66 13 -91 0 -13 -7 -19 -7 -19 0 0 5 -11 10 -25 10 l-25 0 0 -106z"/>
<path d="M10727 7629 c-9 -5 -24 -23 -32 -39 -57 -110 74 -215 164 -131 26 24
31 36 31 76 0 38 -5 52 -29 76 -24 23 -38 29 -73 29 -24 0 -51 -5 -61 -11z
m97 -45 c24 -24 20 -80 -6 -98 -12 -9 -28 -16 -35 -16 -22 0 -53 39 -53 67 0
53 59 83 94 47z"/>
<path d="M11074 7625 c-83 -57 -35 -195 68 -195 59 0 98 42 98 105 0 65 -39
105 -102 105 -24 0 -53 -7 -64 -15z m98 -37 c26 -21 27 -77 2 -102 -52 -52
-127 41 -77 96 19 21 52 23 75 6z"/>
<path d="M11305 7614 c-38 -41 -35 -115 4 -155 33 -33 74 -38 109 -13 21 15
22 14 22 -20 0 -25 -6 -38 -19 -46 -28 -14 -57 -12 -71 5 -16 19 -60 20 -60 1
0 -28 50 -56 99 -56 86 1 101 30 101 189 l0 121 -25 0 c-14 0 -25 -5 -25 -10
0 -7 -6 -7 -19 0 -37 19 -90 12 -116 -16z m119 -33 c26 -29 18 -82 -15 -100
-24 -13 -29 -13 -53 2 -20 13 -26 26 -26 52 0 59 57 87 94 46z"/>
<path d="M11533 7628 c2 -7 21 -54 41 -104 l37 -91 -21 -47 c-25 -59 -25 -56
3 -56 19 0 31 20 89 155 l66 155 -27 0 c-25 0 -30 -6 -52 -70 -13 -38 -26 -70
-30 -70 -3 0 -17 30 -31 68 -22 59 -28 67 -53 70 -20 3 -26 0 -22 -10z"/>
<path d="M7738 5968 c-16 -5 -28 -14 -28 -19 0 -5 684 -9 1720 -9 1016 0 1720
4 1720 9 0 5 -14 14 -31 20 -43 15 -3341 14 -3381 -1z"/>
<path d="M8962 5539 c2 -6 8 -10 13 -10 5 0 11 4 13 10 2 6 -4 11 -13 11 -9 0
-15 -5 -13 -11z"/>
<path d="M9020 5471 c0 -66 3 -81 15 -81 13 0 15 13 13 77 -2 50 -7 78 -15 81
-10 3 -13 -17 -13 -77z"/>
<path d="M9170 5524 c0 -23 -3 -25 -29 -19 -41 9 -76 -25 -66 -63 11 -42 24
-52 71 -50 l44 2 0 78 c0 45 -4 78 -10 78 -5 0 -10 -12 -10 -26z m-16 -50 c20
-19 20 -25 2 -50 -12 -15 -18 -17 -33 -8 -23 14 -28 41 -13 59 16 19 25 19 44
-1z"/>
<path d="M8010 5531 c0 -5 9 -11 20 -14 11 -3 20 -9 19 -14 -1 -4 -1 -32 0
-60 2 -77 21 -65 21 12 0 58 2 65 20 65 11 0 20 5 20 10 0 6 -22 10 -50 10
-27 0 -50 -4 -50 -9z"/>
<path d="M8690 5465 l0 -75 34 0 c19 0 41 3 50 6 19 7 22 64 4 64 -9 0 -9 3 0
12 32 32 1 68 -57 68 l-31 0 0 -75z m69 42 c6 -8 8 -17 4 -20 -12 -12 -53 -7
-53 6 0 28 30 37 49 14z m0 -56 c21 -13 5 -41 -24 -41 -20 0 -25 5 -25 25 0
26 22 33 49 16z"/>
<path d="M8152 5494 c-42 -29 -18 -104 35 -104 22 0 50 26 40 37 -4 3 -13 0
-22 -7 -16 -13 -45 -7 -45 10 0 5 18 10 40 10 33 0 40 3 40 19 0 20 -34 51
-55 51 -6 0 -21 -7 -33 -16z m56 -21 c2 -8 -6 -13 -22 -13 -25 0 -33 10 -19
24 10 10 36 3 41 -11z"/>
<path d="M8280 5493 c-25 -18 -26 -64 -2 -85 10 -9 35 -16 60 -16 l42 1 0 57
0 57 -40 0 c-22 0 -49 -6 -60 -14z m70 -47 c0 -26 -21 -39 -45 -30 -18 7 -20
45 -3 62 17 17 48 -4 48 -32z"/>
<path d="M8414 5501 c-2 -2 -4 -28 -4 -58 0 -40 4 -53 15 -53 11 0 15 12 15
44 0 43 11 58 38 49 7 -3 12 -22 12 -49 0 -32 4 -44 15 -44 11 0 15 12 15 44
0 47 12 60 43 44 12 -6 17 -21 17 -48 0 -22 5 -40 10 -40 6 0 10 20 10 44 0
52 -22 81 -54 71 -12 -4 -25 -6 -31 -5 -44 4 -97 5 -101 1z"/>
<path d="M8820 5470 c0 -65 13 -80 65 -78 l45 2 0 58 c0 32 -4 58 -10 58 -5 0
-11 -6 -11 -12 -7 -77 -16 -95 -43 -85 -9 4 -16 22 -18 48 -4 57 -28 65 -28 9z"/>
<path d="M8967 5503 c-4 -3 -7 -30 -7 -60 0 -40 4 -53 15 -53 12 0 15 13 15
60 0 55 -6 70 -23 53z"/>
<path d="M9242 5494 c-26 -18 -30 -65 -6 -88 21 -22 57 -20 79 4 14 16 15 20
4 20 -8 0 -20 -5 -26 -11 -13 -13 -43 -5 -43 11 0 5 18 10 40 10 33 0 40 3 40
19 0 20 -34 51 -55 51 -6 0 -21 -7 -33 -16z m56 -21 c2 -8 -6 -13 -22 -13 -25
0 -33 10 -19 24 10 10 36 3 41 -11z"/>
<path d="M9360 5450 c0 -33 4 -60 10 -60 6 0 10 18 10 41 0 32 4 42 20 46 11
3 20 12 20 19 0 17 -12 18 -28 2 -9 -9 -12 -9 -12 0 0 7 -4 12 -10 12 -6 0
-10 -27 -10 -60z"/>
<path d="M8229 5122 c5 -34 6 -35 9 -8 2 16 0 32 -5 37 -5 5 -7 -7 -4 -29z"/>
<path d="M8893 5125 c0 -8 4 -12 9 -9 5 3 6 10 3 15 -9 13 -12 11 -12 -6z"/>
<path d="M9541 5124 c0 -11 3 -14 6 -6 3 7 2 16 -1 19 -3 4 -6 -2 -5 -13z"/>
<path d="M8631 5104 c0 -11 3 -14 6 -6 3 7 2 16 -1 19 -3 4 -6 -2 -5 -13z"/>
<path d="M9640 5116 c0 -2 8 -10 18 -17 15 -13 16 -12 3 4 -13 16 -21 21 -21
13z"/>
<path d="M10210 5111 c0 -10 19 -25 25 -20 1 2 -3 10 -11 17 -8 7 -14 8 -14 3z"/>
<path d="M8380 5100 c-9 -6 -10 -10 -3 -10 6 0 15 5 18 10 8 12 4 12 -15 0z"/>
<path d="M8778 5098 c5 -5 16 -8 23 -6 8 3 3 7 -10 11 -17 4 -21 3 -13 -5z"/>
<path d="M10065 5100 c-16 -7 -17 -9 -3 -9 9 -1 20 4 23 9 7 11 7 11 -20 0z"/>
<path d="M10128 5098 c5 -5 16 -8 23 -6 8 3 3 7 -10 11 -17 4 -21 3 -13 -5z"/>
<path d="M10268 5098 c5 -5 16 -8 23 -6 8 3 3 7 -10 11 -17 4 -21 3 -13 -5z"/>
<path d="M8028 5093 c7 -3 16 -2 19 1 4 3 -2 6 -13 5 -11 0 -14 -3 -6 -6z"/>
<path d="M8918 5093 c7 -3 16 -2 19 1 4 3 -2 6 -13 5 -11 0 -14 -3 -6 -6z"/>
<path d="M10538 5093 c7 -3 16 -2 19 1 4 3 -2 6 -13 5 -11 0 -14 -3 -6 -6z"/>
<path d="M8270 4909 c0 -5 5 -7 10 -4 6 3 10 8 10 11 0 2 -4 4 -10 4 -5 0 -10
-5 -10 -11z"/>
<path d="M8469 4882 c5 -34 6 -35 9 -8 2 16 0 32 -5 37 -5 5 -7 -7 -4 -29z"/>
<path d="M9531 4894 c0 -11 3 -14 6 -6 3 7 2 16 -1 19 -3 4 -6 -2 -5 -13z"/>
<path d="M8712 4864 c10 -10 20 -16 22 -13 3 3 -5 11 -17 18 -21 13 -21 12 -5
-5z"/>
<path d="M8017 4858 c2 -5 13 -8 23 -8 10 0 21 3 23 8 3 4 -8 7 -23 7 -15 0
-26 -3 -23 -7z"/>
<path d="M8135 4860 c-16 -7 -17 -9 -3 -9 9 -1 20 4 23 9 7 11 7 11 -20 0z"/>
<path d="M9368 4858 c5 -5 16 -8 23 -6 8 3 3 7 -10 11 -17 4 -21 3 -13 -5z"/>
<path d="M8648 4853 c7 -3 16 -2 19 1 4 3 -2 6 -13 5 -11 0 -14 -3 -6 -6z"/>
<path d="M9818 4853 c7 -3 16 -2 19 1 4 3 -2 6 -13 5 -11 0 -14 -3 -6 -6z"/>
<path d="M9531 4834 c0 -11 3 -14 6 -6 3 7 2 16 -1 19 -3 4 -6 -2 -5 -13z"/>
<path d="M10290 4180 l0 -70 285 0 285 0 0 70 0 70 -285 0 -285 0 0 -70z m100
-1 c0 -5 -7 -9 -15 -9 -15 0 -20 12 -9 23 8 8 24 -1 24 -14z m130 0 c0 -5 -7
-9 -15 -9 -15 0 -20 12 -9 23 8 8 24 -1 24 -14z m-70 1 c0 -5 -4 -10 -10 -10
-5 0 -10 5 -10 10 0 6 5 10 10 10 6 0 10 -4 10 -10z"/>
<path d="M5022 4109 c2 -6 8 -10 13 -10 5 0 11 4 13 10 2 6 -4 11 -13 11 -9 0
-15 -5 -13 -11z"/>
<path d="M12070 4041 c0 -66 3 -81 15 -81 13 0 15 13 13 77 -2 50 -7 78 -15
81 -10 3 -13 -17 -13 -77z"/>
<path d="M12400 4040 c0 -47 4 -80 10 -80 6 0 10 33 10 80 0 47 -4 80 -10 80
-6 0 -10 -33 -10 -80z"/>
<path d="M4270 4095 c-19 -23 -7 -49 32 -67 26 -12 36 -23 32 -33 -7 -18 -18
-19 -44 -3 -26 16 -40 0 -16 -18 40 -29 92 -8 84 33 -2 10 -18 25 -35 33 -32
15 -42 33 -23 45 5 3 18 0 29 -7 27 -16 41 0 17 18 -25 18 -60 18 -76 -1z"/>
<path d="M11780 4090 c-45 -45 -13 -130 48 -130 16 0 37 9 47 20 20 22 7 27
-26 9 -16 -8 -26 -7 -45 6 -32 21 -32 59 1 81 23 15 27 15 51 -1 33 -22 46 -9
15 16 -30 25 -66 24 -91 -1z"/>
<path d="M12610 4096 c0 -8 -6 -16 -12 -19 -10 -4 -10 -7 0 -18 6 -7 12 -30
12 -50 0 -29 5 -39 21 -44 27 -9 39 4 16 16 -21 12 -23 67 -2 75 8 4 15 10 15
15 0 5 -7 9 -15 9 -8 0 -15 7 -15 15 0 8 -4 15 -10 15 -5 0 -10 -6 -10 -14z"/>
<path d="M4390 4040 c0 -65 13 -80 65 -78 l45 2 0 58 c0 32 -4 58 -10 58 -5 0
-10 -15 -10 -33 0 -76 -56 -91 -62 -16 -4 57 -28 65 -28 9z"/>
<path d="M4537 4073 c-4 -3 -7 -42 -7 -85 0 -63 3 -78 15 -78 10 0 15 10 15
30 0 28 2 30 25 24 53 -13 88 62 47 99 -22 20 -43 22 -60 5 -9 -9 -12 -9 -12
0 0 13 -13 16 -23 5z m87 -39 c13 -33 -24 -65 -50 -43 -19 16 -17 46 3 57 20
12 39 6 47 -14z"/>
<path d="M4690 4060 c-25 -25 -26 -62 -2 -83 24 -22 56 -22 78 0 20 20 1 32
-21 13 -16 -13 -45 -7 -45 10 0 5 18 10 40 10 33 0 40 3 40 19 0 20 -35 51
-57 51 -7 0 -22 -9 -33 -20z m60 -15 c11 -13 8 -15 -19 -15 -31 0 -42 14 -18
23 20 9 24 8 37 -8z"/>
<path d="M4810 4019 c0 -33 4 -59 10 -59 6 0 10 18 10 41 0 32 4 42 20 46 31
8 24 28 -10 29 l-30 1 0 -58z"/>
<path d="M4890 4073 c0 -3 8 -30 17 -60 23 -72 43 -71 72 3 12 32 19 59 17 61
-10 11 -26 -10 -36 -49 -13 -45 -22 -42 -40 15 -6 20 -16 37 -21 37 -5 0 -9
-3 -9 -7z"/>
<path d="M5020 4020 c0 -47 3 -60 15 -60 12 0 15 13 15 60 0 47 -3 60 -15 60
-12 0 -15 -13 -15 -60z"/>
<path d="M5092 4068 c-23 -23 -13 -46 24 -58 26 -9 33 -15 25 -23 -9 -9 -17
-8 -32 1 -25 16 -37 8 -19 -13 26 -31 88 -8 74 28 -3 9 -19 20 -36 26 -16 6
-27 15 -23 21 8 14 32 13 37 -1 2 -7 10 -10 17 -8 11 4 10 9 -3 22 -20 20 -47
22 -64 5z"/>
<path d="M5210 4060 c-52 -52 15 -132 73 -87 28 21 32 62 8 86 -26 26 -55 27
-81 1z m64 -23 c14 -22 -4 -52 -30 -52 -14 0 -20 8 -22 29 -5 44 29 59 52 23z"/>
<path d="M5330 4020 c0 -47 3 -60 15 -60 11 0 15 11 15 40 0 27 5 43 15 46 8
4 15 13 15 21 0 13 -3 13 -15 3 -10 -9 -15 -9 -15 -1 0 6 -7 11 -15 11 -12 0
-15 -13 -15 -60z"/>
<path d="M11937 4062 c-21 -23 -22 -66 -2 -85 9 -9 32 -15 60 -15 l45 1 0 53
c0 52 -15 79 -30 54 -5 -9 -9 -9 -14 -1 -11 17 -41 13 -59 -7z m67 -25 c11
-18 0 -47 -21 -54 -12 -4 -43 23 -43 37 0 14 31 41 43 37 6 -2 15 -11 21 -20z"/>
<path d="M12139 4059 c-21 -21 -20 -59 3 -86 14 -17 50 -16 74 1 27 20 10 32
-22 16 -22 -12 -27 -12 -34 0 -25 39 4 86 36 59 22 -18 39 -6 20 14 -23 23
-52 21 -77 -4z"/>
<path d="M12260 4031 c0 -57 12 -70 63 -68 l37 1 0 58 c0 32 -4 58 -10 58 -5
0 -10 -17 -10 -39 0 -42 -18 -65 -44 -55 -11 4 -16 19 -16 50 0 24 -4 44 -10
44 -5 0 -10 -22 -10 -49z"/>
<path d="M12465 4057 c-36 -51 -6 -95 63 -95 l42 1 0 57 0 57 -45 1 c-35 0
-48 -5 -60 -21z m75 -36 c0 -24 -23 -43 -44 -35 -19 7 -21 45 -4 62 15 15 48
-3 48 -27z"/>
<path d="M12702 4064 c-43 -30 -18 -104 36 -104 48 0 71 70 34 103 -23 21 -41
21 -70 1z m68 -43 c0 -23 -25 -45 -43 -38 -21 8 -27 45 -10 62 18 19 53 3 53
-24z"/>
<path d="M12820 4020 c0 -47 3 -60 15 -60 11 0 15 11 15 40 0 27 5 43 15 46
26 10 16 29 -15 31 l-30 2 0 -59z"/>
<path d="M10554 3959 c-10 -12 -44 -43 -74 -69 -30 -26 -52 -51 -47 -56 10
-10 45 10 95 56 l42 39 0 -38 c0 -25 5 -41 15 -45 8 -3 15 -12 15 -21 0 -8 -7
-15 -15 -15 -21 0 -20 -73 1 -105 13 -20 25 -25 59 -25 l42 0 6 49 c3 28 4 61
1 76 -4 20 -1 25 12 23 38 -7 21 23 -49 86 -41 36 -76 66 -79 66 -2 0 -13 -10
-24 -21z"/>
<path d="M12172 3730 c0 -14 2 -19 5 -12 2 6 2 18 0 25 -3 6 -5 1 -5 -13z"/>
<path d="M14332 3730 c0 -14 2 -19 5 -12 2 6 2 18 0 25 -3 6 -5 1 -5 -13z"/>
<path d="M5671 3714 c0 -11 3 -14 6 -6 3 7 2 16 -1 19 -3 4 -6 -2 -5 -13z"/>
<path d="M12706 3717 c3 -10 9 -15 12 -12 3 3 0 11 -7 18 -10 9 -11 8 -5 -6z"/>
<path d="M14242 3710 c0 -14 2 -19 5 -12 2 6 2 18 0 25 -3 6 -5 1 -5 -13z"/>
<path d="M4370 3691 c0 -6 4 -13 10 -16 6 -3 7 1 4 9 -7 18 -14 21 -14 7z"/>
<path d="M5411 3684 c0 -11 3 -14 6 -6 3 7 2 16 -1 19 -3 4 -6 -2 -5 -13z"/>
<path d="M12172 3680 c0 -14 2 -19 5 -12 2 6 2 18 0 25 -3 6 -5 1 -5 -13z"/>
<path d="M13930 3685 c0 -8 4 -15 10 -15 5 0 7 7 4 15 -4 8 -8 15 -10 15 -2 0
-4 -7 -4 -15z"/>
<path d="M14332 3680 c0 -14 2 -19 5 -12 2 6 2 18 0 25 -3 6 -5 1 -5 -13z"/>
<path d="M14388 3693 c7 -3 16 -2 19 1 4 3 -2 6 -13 5 -11 0 -14 -3 -6 -6z"/>
<path d="M4305 3679 c-4 -6 -5 -12 -2 -15 2 -3 7 2 10 11 7 17 1 20 -8 4z"/>
<path d="M5671 3674 c0 -11 3 -14 6 -6 3 7 2 16 -1 19 -3 4 -6 -2 -5 -13z"/>
<path d="M6025 3669 c-4 -6 -5 -12 -2 -15 2 -3 7 2 10 11 7 17 1 20 -8 4z"/>
<path d="M6295 3670 c-16 -7 -17 -9 -3 -9 9 -1 20 4 23 9 7 11 7 11 -20 0z"/>
<path d="M6415 3670 c-16 -7 -17 -9 -3 -9 9 -1 20 4 23 9 7 11 7 11 -20 0z"/>
<path d="M6478 3668 c5 -5 16 -8 23 -6 8 3 3 7 -10 11 -17 4 -21 3 -13 -5z"/>
<path d="M11880 3670 c-9 -6 -10 -10 -3 -10 6 0 15 5 18 10 8 12 4 12 -15 0z"/>
<path d="M11955 3670 c-16 -7 -17 -9 -3 -9 9 -1 20 4 23 9 7 11 7 11 -20 0z"/>
<path d="M12218 3668 c5 -5 16 -8 23 -6 8 3 3 7 -10 11 -17 4 -21 3 -13 -5z"/>
<path d="M12358 3668 c5 -5 16 -8 23 -6 8 3 3 7 -10 11 -17 4 -21 3 -13 -5z"/>
<path d="M12875 3670 c-16 -7 -17 -9 -3 -9 9 -1 20 4 23 9 7 11 7 11 -20 0z"/>
<path d="M12937 3669 c7 -7 15 -10 18 -7 3 3 -2 9 -12 12 -14 6 -15 5 -6 -5z"/>
<path d="M13448 3668 c5 -5 16 -8 23 -6 8 3 3 7 -10 11 -17 4 -21 3 -13 -5z"/>
<path d="M14088 3668 c5 -5 16 -8 23 -6 8 3 3 7 -10 11 -17 4 -21 3 -13 -5z"/>
<path d="M14378 3668 c5 -5 16 -8 23 -6 8 3 3 7 -10 11 -17 4 -21 3 -13 -5z"/>
<path d="M5478 3663 c7 -3 16 -2 19 1 4 3 -2 6 -13 5 -11 0 -14 -3 -6 -6z"/>
<path d="M12138 3663 c7 -3 16 -2 19 1 4 3 -2 6 -13 5 -11 0 -14 -3 -6 -6z"/>
<path d="M4582 3480 c0 -14 2 -19 5 -12 2 6 2 18 0 25 -3 6 -5 1 -5 -13z"/>
<path d="M12931 3484 c0 -11 3 -14 6 -6 3 7 2 16 -1 19 -3 4 -6 -2 -5 -13z"/>
<path d="M4260 3475 c0 -8 2 -15 4 -15 2 0 6 7 10 15 3 8 1 15 -4 15 -6 0 -10
-7 -10 -15z"/>
<path d="M4671 3474 c0 -11 3 -14 6 -6 3 7 2 16 -1 19 -3 4 -6 -2 -5 -13z"/>
<path d="M12383 3455 c0 -22 2 -30 4 -17 2 12 2 30 0 40 -3 9 -5 -1 -4 -23z"/>
<path d="M13211 3474 c0 -11 3 -14 6 -6 3 7 2 16 -1 19 -3 4 -6 -2 -5 -13z"/>
<path d="M11821 3457 c-1 -10 -11 -22 -23 -27 -16 -6 -18 -9 -7 -9 21 -1 43
24 36 41 -3 8 -6 6 -6 -5z"/>
<path d="M4580 3440 c0 -5 5 -10 11 -10 5 0 7 5 4 10 -3 6 -8 10 -11 10 -2 0
-4 -4 -4 -10z"/>
<path d="M13211 3434 c0 -11 3 -14 6 -6 3 7 2 16 -1 19 -3 4 -6 -2 -5 -13z"/>
<path d="M4407 3429 c7 -7 15 -10 18 -7 3 3 -2 9 -12 12 -14 6 -15 5 -6 -5z"/>
<path d="M4825 3430 c-16 -7 -17 -9 -3 -9 9 -1 20 4 23 9 7 11 7 11 -20 0z"/>
<path d="M11885 3430 c-16 -7 -17 -9 -3 -9 9 -1 20 4 23 9 7 11 7 11 -20 0z"/>
<path d="M12065 3430 c-16 -7 -17 -9 -3 -9 9 -1 20 4 23 9 7 11 7 11 -20 0z"/>
<path d="M12805 3430 c-16 -7 -17 -9 -3 -9 9 -1 20 4 23 9 7 11 7 11 -20 0z"/>
<path d="M4728 3423 c7 -3 16 -2 19 1 4 3 -2 6 -13 5 -11 0 -14 -3 -6 -6z"/>
<path d="M12318 3423 c7 -3 16 -2 19 1 4 3 -2 6 -13 5 -11 0 -14 -3 -6 -6z"/>
<path d="M12548 3423 c7 -3 16 -2 19 1 4 3 -2 6 -13 5 -11 0 -14 -3 -6 -6z"/>
<path d="M13398 3423 c7 -3 16 -2 19 1 4 3 -2 6 -13 5 -11 0 -14 -3 -6 -6z"/>
<path d="M6837 2806 c-56 -15 -108 -61 -137 -121 -24 -49 -25 -97 -5 -156 l16
-43 -83 -83 -82 -83 34 -35 34 -35 86 84 c82 82 86 84 110 71 14 -8 49 -14 79
-15 185 -1 288 210 169 346 -58 66 -139 92 -221 70z m137 -36 c46 -22 92 -84
102 -137 9 -50 -13 -117 -53 -157 -117 -117 -313 -38 -313 127 0 138 141 227
264 167z"/>
<path d="M6883 2605 c-3 -9 -3 -18 0 -21 9 -9 27 6 27 22 0 19 -19 18 -27 -1z"/>
<path d="M14040 2633 l0 -186 212 6 c116 4 244 7 285 7 l73 0 0 180 0 180
-285 0 -285 0 0 -187z m246 95 c19 -13 37 -37 44 -59 11 -32 10 -42 -6 -75
-11 -21 -34 -47 -52 -58 -29 -16 -39 -17 -72 -7 -69 20 -109 97 -79 152 36 69
105 88 165 47z"/>
<path d="M14184 2665 c-30 -46 10 -94 63 -74 30 11 38 45 19 74 -22 33 -60 33
-82 0z"/>
<path d="M8010 2595 c0 -60 3 -75 15 -75 10 0 15 10 15 33 l1 32 29 -32 c29
-32 50 -42 50 -25 0 5 -11 19 -25 32 -14 13 -25 29 -25 35 0 6 11 22 25 35 14
13 25 27 25 32 0 17 -21 7 -50 -24 l-29 -33 -1 33 c0 22 -5 32 -15 32 -12 0
-15 -15 -15 -75z"/>
<path d="M8174 2632 c-6 -4 -15 -15 -21 -25 -25 -47 25 -106 68 -79 11 7 19 8
19 2 0 -5 5 -10 10 -10 6 0 10 27 10 60 0 33 -4 60 -10 60 -5 0 -10 -5 -10
-10 0 -7 -6 -7 -19 0 -23 12 -32 12 -47 2z m66 -51 c0 -28 -28 -47 -48 -34
-24 15 -27 44 -7 59 22 17 55 1 55 -25z"/>
<path d="M8300 2580 c0 -33 4 -60 10 -60 6 0 10 13 10 29 0 39 9 61 26 61 8 0
14 7 14 15 0 13 -4 14 -20 5 -14 -7 -20 -7 -20 0 0 5 -4 10 -10 10 -6 0 -10
-27 -10 -60z"/>
<path d="M8390 2579 c0 -33 4 -59 10 -59 6 0 10 18 10 40 0 28 5 42 18 49 27
14 42 -5 42 -51 0 -21 5 -38 10 -38 6 0 10 15 10 34 0 38 23 68 45 60 10 -4
15 -21 15 -50 0 -34 4 -44 16 -44 14 0 16 8 11 46 -6 60 -27 82 -62 66 -15 -7
-32 -9 -38 -5 -6 4 -29 8 -49 9 l-38 2 0 -59z"/>
<path d="M8620 2620 c-45 -45 -14 -98 58 -98 l42 1 0 58 c0 46 -3 59 -15 59
-8 0 -15 -5 -15 -12 0 -9 -3 -9 -12 0 -17 17 -35 15 -58 -8z m54 -6 c20 -8 21
-60 1 -68 -37 -14 -62 33 -33 62 14 14 12 14 32 6z"/>
<path d="M8532 2300 c0 -14 2 -19 5 -12 2 6 2 18 0 25 -3 6 -5 1 -5 -13z"/>
<path d="M8484 2276 c-3 -8 -4 -25 -2 -38 3 -17 5 -13 9 15 5 38 2 47 -7 23z"/>
<path d="M10580 2275 c0 -8 2 -15 4 -15 2 0 6 7 10 15 3 8 1 15 -4 15 -6 0
-10 -7 -10 -15z"/>
<path d="M10491 2264 c0 -11 3 -14 6 -6 3 7 2 16 -1 19 -3 4 -6 -2 -5 -13z"/>
<path d="M8531 2254 c0 -11 3 -14 6 -6 3 7 2 16 -1 19 -3 4 -6 -2 -5 -13z"/>
<path d="M9112 2245 c0 -16 2 -22 5 -12 2 9 2 23 0 30 -3 6 -5 -1 -5 -18z"/>
<path d="M8170 2246 c0 -2 8 -10 18 -17 15 -13 16 -12 3 4 -13 16 -21 21 -21
13z"/>
<path d="M8321 2234 c0 -11 3 -14 6 -6 3 7 2 16 -1 19 -3 4 -6 -2 -5 -13z"/>
<path d="M9702 2234 c10 -10 20 -16 22 -13 3 3 -5 11 -17 18 -21 13 -21 12 -5
-5z"/>
<path d="M9751 2234 c0 -11 3 -14 6 -6 3 7 2 16 -1 19 -3 4 -6 -2 -5 -13z"/>
<path d="M8125 2230 c-16 -7 -17 -9 -3 -9 9 -1 20 4 23 9 7 11 7 11 -20 0z"/>
<path d="M8585 2229 c-4 -6 -5 -12 -2 -15 2 -3 7 2 10 11 7 17 1 20 -8 4z"/>
<path d="M9415 2230 c-16 -7 -17 -9 -3 -9 9 -1 20 4 23 9 7 11 7 11 -20 0z"/>
<path d="M9827 2229 c7 -7 15 -10 18 -7 3 3 -2 9 -12 12 -14 6 -15 5 -6 -5z"/>
<path d="M10087 2229 c7 -7 15 -10 18 -7 3 3 -2 9 -12 12 -14 6 -15 5 -6 -5z"/>
<path d="M10138 2228 c5 -5 16 -8 23 -6 8 3 3 7 -10 11 -17 4 -21 3 -13 -5z"/>
<path d="M10450 2230 c-9 -6 -10 -10 -3 -10 6 0 15 5 18 10 8 12 4 12 -15 0z"/>
<path d="M10278 2223 c7 -3 16 -2 19 1 4 3 -2 6 -13 5 -11 0 -14 -3 -6 -6z"/>
<path d="M10483 972 c-25 -4 -32 -22 -8 -22 10 0 15 -11 15 -35 0 -28 4 -35
20 -35 16 0 20 -7 20 -35 l0 -35 50 0 50 0 0 35 c0 24 5 35 15 35 10 0 15 10
15 30 0 20 5 30 15 30 8 0 15 9 15 21 0 19 -5 20 -92 17 -51 -2 -103 -4 -115
-6z"/>
</g>
</svg>
